<?xml version="1.0" encoding="UTF-8"?><svg xmlns="http://www.w3.org/2000/svg" width="500" height="176" viewBox="0 0 500 176"><g id="a"><g style="opacity:.3;"><path d="M326.218,64.671c3.716,0,7.354-.665,10.814-1.976l.325-.123v-24.2h-2.949v10.01c-2.416,1.114-5.052,1.679-7.839,1.679-1.396,0-2.718-.205-3.93-.608-1.206-.402-2.316-1.009-3.298-1.804-.966-.782-1.738-1.843-2.296-3.154-.564-1.324-.851-2.879-.851-4.622,0-2.8,1.004-5.223,2.984-7.203,1.981-1.98,4.405-2.984,7.203-2.984,1.726,0,3.348,.402,4.824,1.196,1.476,.793,2.693,1.888,3.614,3.253l.278,.413,2.431-1.607-.283-.421c-1.192-1.769-2.758-3.19-4.657-4.224-1.902-1.034-3.99-1.559-6.207-1.559-1.77,0-3.485,.349-5.097,1.04-1.611,.689-3.021,1.633-4.194,2.806-1.174,1.173-2.118,2.584-2.807,4.194-.69,1.611-1.04,3.326-1.04,5.097,0,2.129,.372,4.071,1.107,5.774,.739,1.712,1.759,3.115,3.029,4.169,1.255,1.042,2.684,1.844,4.247,2.383,1.557,.537,3.237,.81,4.997,.81,2.755,0,5.37-.486,7.784-1.447v.78c-2.486,1.083-5.185,1.632-8.028,1.632-1.475,0-2.918-.198-4.29-.588-1.367-.39-2.661-.982-3.843-1.759-1.184-.778-2.23-1.732-3.109-2.836-.877-1.098-1.575-2.426-2.075-3.947-.503-1.525-.758-3.198-.758-4.971,0-2.544,.635-4.919,1.889-7.062,1.255-2.146,2.979-3.87,5.125-5.124,2.142-1.253,4.518-1.889,7.061-1.889,2.369,0,4.6,.556,6.632,1.654,2.033,1.099,3.713,2.604,4.994,4.472l.277,.404,2.461-1.599-.288-.424c-1.551-2.289-3.586-4.123-6.049-5.452-2.466-1.33-5.166-2.004-8.027-2.004-3.064,0-5.937,.768-8.539,2.282-2.603,1.513-4.689,3.6-6.203,6.202-1.514,2.604-2.281,5.478-2.281,8.54,0,2.611,.477,5.04,1.417,7.219,.945,2.184,2.237,4.006,3.842,5.415,1.594,1.402,3.441,2.5,5.487,3.265,2.045,.765,4.22,1.152,6.465,1.152,2.701,0,5.333-.444,7.839-1.321v.872c-2.536,.903-5.234,1.361-8.028,1.361-1.868,0-3.715-.266-5.486-.789-1.768-.523-3.424-1.304-4.921-2.323-1.497-1.018-2.826-2.254-3.951-3.675-1.119-1.415-2.008-3.098-2.644-5.003-.637-1.909-.96-3.985-.96-6.172,0-2.422,.477-4.772,1.417-6.984,.942-2.215,2.227-4.146,3.821-5.74,1.594-1.593,3.525-2.879,5.74-3.821,2.213-.94,4.562-1.417,6.984-1.417,3.015,0,5.863,.711,8.468,2.113,2.607,1.404,4.759,3.334,6.396,5.738l.277,.407,2.462-1.601-.289-.425c-1.908-2.807-4.41-5.063-7.437-6.706-3.031-1.643-6.354-2.477-9.877-2.477-3.762,0-7.289,.945-10.484,2.808-3.193,1.863-5.756,4.426-7.619,7.618-1.864,3.194-2.808,6.722-2.808,10.484,0,2.491,.377,4.875,1.12,7.084,.743,2.213,1.788,4.18,3.105,5.847,1.312,1.661,2.864,3.112,4.618,4.314,1.754,1.203,3.69,2.125,5.756,2.74,2.062,.614,4.213,.925,6.392,.925,2.752,0,5.422-.391,7.947-1.163v.811c-5.25,1.704-11.206,1.825-16.449-.306-2.611-1.06-4.935-2.539-6.905-4.394-1.964-1.851-3.559-4.183-4.742-6.932-1.182-2.75-1.781-5.753-1.781-8.926,0-2.942,.581-5.796,1.728-8.481,1.148-2.69,2.715-5.04,4.658-6.982,1.944-1.943,4.293-3.51,6.982-4.658,2.687-1.147,5.54-1.728,8.481-1.728,3.66,0,7.117,.861,10.277,2.559,3.162,1.699,5.777,4.043,7.773,6.967l.277,.406,2.463-1.601-.29-.425c-2.266-3.326-5.232-5.995-8.814-7.934-3.586-1.939-7.517-2.922-11.685-2.922-3.346,0-6.588,.663-9.633,1.971-3.042,1.306-5.701,3.086-7.905,5.29-2.204,2.204-3.983,4.864-5.289,7.905-1.309,3.044-1.971,6.285-1.971,9.633,0,3.615,.681,7.029,2.025,10.147,1.345,3.117,3.169,5.771,5.423,7.888,2.25,2.112,4.891,3.785,7.849,4.972,2.963,1.188,6.105,1.791,9.339,1.791Z" style="fill:#0abdf0;"/><path d="M19.789,42.451c1.331,1.472,3.055,2.641,5.124,3.477,2.057,.83,4.387,1.251,6.924,1.251h2.915c.625,0,1.057,.12,1.249,.349,.22,.26,.327,.617,.327,1.093,0,.439-.18,.76-.566,1.008-.306,.197-1.049,.433-2.846,.433-3.099,0-5.272-.275-6.459-.818l-.273-.125-2.403,1.823,.646,.38c1.905,1.121,4.761,1.689,8.488,1.689,5.213,0,6.307-2.387,6.307-4.39,0-1.268-.349-2.323-1.038-3.133-.709-.834-1.846-1.257-3.379-1.257h-2.969c-2.776,0-5.206-.599-7.224-1.781-2.011-1.177-3.526-2.755-4.502-4.692-.985-1.953-1.485-4.184-1.485-6.63,0-1.813,.336-3.527,.999-5.095,.664-1.567,1.624-2.965,2.856-4.153,1.229-1.186,2.821-2.134,4.733-2.818,1.925-.688,4.116-1.037,6.512-1.037,3.081,0,6.007,.45,8.697,1.338,2.674,.883,4.929,2.141,6.705,3.742l.306,.276,2.38-1.765-.439-.412c-2.059-1.93-4.662-3.451-7.737-4.521-3.062-1.067-6.396-1.607-9.911-1.607-2.248,0-4.369,.274-6.304,.815-1.943,.543-3.646,1.311-5.062,2.283-1.415,.971-2.644,2.139-3.654,3.472-1.011,1.336-1.777,2.822-2.278,4.418-.499,1.59-.752,3.293-.752,5.064,0,2.21,.355,4.302,1.056,6.219,.703,1.924,1.731,3.642,3.056,5.105Z" style="fill:#0abdf0;"/><rect x="53.389" y="20.906" width="30.16" height="2.949" style="fill:#0abdf0;"/><rect x="53.389" y="17.019" width="30.16" height="2.949" style="fill:#0abdf0;"/><path d="M111.94,57.411c2.204,2.204,4.864,3.983,7.905,5.29,3.046,1.308,6.286,1.971,9.634,1.971,4.149,0,8.071-.978,11.657-2.908,3.581-1.927,6.546-4.573,8.814-7.865l.272-.395-2.368-1.798-.298,.437c-1.995,2.923-4.616,5.277-7.789,6.995-3.167,1.715-6.628,2.585-10.288,2.585-2.941,0-5.795-.581-8.482-1.728-2.689-1.148-5.038-2.715-6.982-4.658-1.943-1.943-3.51-4.292-4.658-6.982-1.147-2.687-1.728-5.54-1.728-8.481s.581-5.794,1.728-8.481c1.148-2.69,2.715-5.04,4.658-6.982,1.944-1.943,4.293-3.51,6.982-4.658,2.687-1.147,5.541-1.728,8.482-1.728,3.66,0,7.117,.861,10.275,2.559,3.162,1.699,5.778,4.043,7.774,6.967l.277,.406,2.462-1.601-.29-.425c-2.267-3.326-5.233-5.995-8.815-7.934-3.586-1.939-7.518-2.922-11.685-2.922-3.347,0-6.588,.663-9.634,1.971-3.041,1.307-5.701,3.086-7.905,5.29s-3.984,4.864-5.29,7.905c-1.307,3.046-1.971,6.286-1.971,9.633s.663,6.587,1.971,9.633c1.306,3.041,3.085,5.701,5.29,7.905Z" style="fill:#0abdf0;"/><rect x="201.755" y="20.906" width="30.16" height="2.949" style="fill:#0abdf0;"/><rect x="201.755" y="17.019" width="30.16" height="2.949" style="fill:#0abdf0;"/><path d="M46.492,25.862l2.298-1.846-.454-.395c-1.7-1.478-3.854-2.638-6.4-3.447-2.531-.804-5.293-1.211-8.21-1.211-4.43,0-7.932,1.157-10.41,3.44-2.49,2.293-3.752,5.228-3.752,8.724s1.095,6.41,3.255,8.699c2.167,2.299,5.201,3.465,9.017,3.465h2.942c1.944,0,3.352,.482,4.184,1.434,.849,.972,1.28,2.282,1.28,3.894s-.556,2.863-1.701,3.843c-1.151,.986-3.044,1.485-5.625,1.485-4.106,0-7.28-.751-9.433-2.233l-.302-.208-2.343,1.809,.514,.398c1.324,1.026,3.023,1.823,5.05,2.37,2.004,.539,4.196,.813,6.515,.813,3.369,0,5.947-.769,7.662-2.286,1.734-1.532,2.613-3.548,2.613-5.991,0-2.385-.706-4.378-2.1-5.925-1.407-1.561-3.522-2.352-6.285-2.352h-2.969c-3.007,0-5.335-.868-6.92-2.579-1.595-1.722-2.404-3.955-2.404-6.637,0-2.72,.931-4.885,2.845-6.619,1.902-1.723,4.718-2.596,8.368-2.596,2.512,0,4.888,.329,7.064,.978,2.157,.644,3.969,1.557,5.387,2.715l.316,.258Z" style="fill:#0abdf0;"/><path d="M32.916,64.671c2.248,0,4.369-.274,6.304-.815,1.943-.543,3.646-1.311,5.062-2.283,1.415-.971,2.644-2.139,3.654-3.472,1.011-1.336,1.778-2.823,2.278-4.418,.499-1.589,.752-3.293,.752-5.064,0-2.171-.346-4.24-1.028-6.148-.684-1.913-1.688-3.63-2.985-5.104-1.304-1.481-2.986-2.665-4.999-3.518-2.007-.85-4.285-1.281-6.77-1.281h-3.347c-.607,0-1.024-.115-1.208-.334-.208-.247-.314-.619-.314-1.107,0-.439,.18-.759,.565-1.008,.307-.197,1.05-.433,2.846-.433,3.079,0,5.243,.275,6.432,.818l.273,.125,2.403-1.823-.646-.38c-1.905-1.121-4.752-1.689-8.461-1.689-5.213,0-6.307,2.387-6.307,4.39,0,1.288,.35,2.348,1.04,3.149,.708,.823,1.844,1.241,3.377,1.241h3.266c2.7,0,5.069,.611,7.04,1.816,1.969,1.204,3.454,2.792,4.414,4.722,.968,1.945,1.459,4.154,1.459,6.565,0,1.813-.336,3.528-.999,5.095-.663,1.567-1.624,2.965-2.856,4.153-1.229,1.186-2.821,2.134-4.734,2.818-1.925,.688-4.116,1.037-6.512,1.037-3.081,0-6.012-.45-8.711-1.339-2.683-.882-4.943-2.141-6.718-3.742l-.305-.276-2.38,1.764,.439,.412c2.058,1.93,4.666,3.451,7.751,4.521,3.071,1.067,6.41,1.607,9.924,1.607Z" style="fill:#0abdf0;"/><path d="M33.726,22.85c-3.368,0-5.946,.769-7.662,2.286-1.734,1.533-2.613,3.549-2.613,5.991,0,2.423,.707,4.426,2.102,5.954,1.406,1.542,3.52,2.324,6.284,2.324h3.05c2.97,0,5.275,.872,6.85,2.591,1.587,1.731,2.392,3.96,2.392,6.625,0,2.721-.931,4.886-2.845,6.619-1.901,1.723-4.717,2.596-8.368,2.596-2.513,0-4.894-.329-7.078-.978-2.166-.643-3.983-1.557-5.399-2.715l-.316-.258-2.298,1.846,.454,.395c1.7,1.478,3.858,2.638,6.414,3.447,2.538,.804,5.304,1.211,8.223,1.211,4.429,0,7.931-1.157,10.41-3.44,2.49-2.293,3.752-5.229,3.752-8.724,0-3.426-1.085-6.338-3.224-8.656-2.151-2.328-5.159-3.509-8.94-3.509h-3.077c-1.945,0-3.347-.478-4.17-1.421-.84-.962-1.266-2.277-1.266-3.907,0-1.606,.556-2.863,1.701-3.843,1.151-.986,3.044-1.485,5.625-1.485,4.088,0,7.252,.751,9.407,2.233l.302,.208,2.343-1.809-.514-.398c-1.326-1.026-3.02-1.823-5.036-2.369-1.996-.54-4.183-.814-6.502-.814Z" style="fill:#0abdf0;"/><polygon points="61.164 62.728 64.112 62.728 64.112 27.742 65.051 27.742 65.051 62.728 68 62.728 68 27.742 68.938 27.742 68.938 62.728 71.887 62.728 71.887 27.742 72.825 27.742 72.825 62.728 75.774 62.728 75.774 27.742 83.549 27.742 83.549 24.793 53.389 24.793 53.389 27.742 61.164 27.742 61.164 62.728" style="fill:#0abdf0;"/><rect x="86.944" y="17.019" width="2.949" height="45.709" style="fill:#0abdf0;"/><rect x="94.718" y="17.019" width="2.949" height="45.709" style="fill:#0abdf0;"/><rect x="98.606" y="17.019" width="2.949" height="45.709" style="fill:#0abdf0;"/><rect x="90.831" y="17.019" width="2.949" height="45.709" style="fill:#0abdf0;"/><path d="M129.478,29.686c1.725,0,3.348,.402,4.823,1.196,1.477,.793,2.693,1.888,3.614,3.253l.279,.413,2.431-1.607-.284-.42c-1.193-1.77-2.76-3.191-4.657-4.224-1.902-1.034-3.99-1.559-6.206-1.559-1.769,0-3.485,.349-5.098,1.04-1.609,.688-3.02,1.633-4.192,2.806-1.174,1.173-2.118,2.584-2.806,4.193-.69,1.609-1.04,3.324-1.04,5.098s.35,3.488,1.04,5.097c.689,1.61,1.632,3.021,2.807,4.194,1.174,1.175,2.584,2.119,4.192,2.806,1.612,.69,3.327,1.04,5.098,1.04,2.198,0,4.277-.52,6.177-1.545,1.899-1.024,3.467-2.431,4.657-4.182l.274-.403-2.381-1.725-.291,.43c-.921,1.365-2.138,2.465-3.616,3.268-1.474,.802-3.097,1.208-4.821,1.208-2.801,0-5.224-1.004-7.203-2.984-1.98-1.979-2.984-4.402-2.984-7.203s1.004-5.224,2.984-7.203c1.98-1.98,4.403-2.984,7.203-2.984Z" style="fill:#0abdf0;"/><path d="M141.38,32.328l2.461-1.599-.287-.424c-1.551-2.289-3.585-4.123-6.048-5.452-2.466-1.33-5.166-2.004-8.027-2.004-3.064,0-5.936,.768-8.54,2.282-2.602,1.513-4.689,3.599-6.203,6.202-1.514,2.603-2.281,5.477-2.281,8.54s.768,5.937,2.281,8.54c1.515,2.603,3.602,4.69,6.203,6.201,2.602,1.514,5.476,2.282,8.54,2.282,2.861,0,5.561-.674,8.027-2.004,2.463-1.329,4.498-3.163,6.048-5.452l.278-.411-2.417-1.681-.285,.421c-1.28,1.886-2.964,3.403-5.007,4.511-2.04,1.106-4.275,1.667-6.644,1.667-2.544,0-4.92-.636-7.061-1.889-2.147-1.255-3.872-2.979-5.125-5.124-1.254-2.142-1.889-4.518-1.889-7.062s.636-4.919,1.889-7.062c1.254-2.145,2.977-3.869,5.125-5.124,2.141-1.253,4.518-1.889,7.061-1.889,2.369,0,4.6,.556,6.631,1.654,2.035,1.1,3.715,2.604,4.994,4.472l.277,.404Z" style="fill:#0abdf0;"/><path d="M144.618,30.17l2.462-1.601-.288-.425c-1.907-2.807-4.41-5.063-7.436-6.706-3.031-1.643-6.355-2.477-9.877-2.477-3.762,0-7.289,.945-10.484,2.808-3.194,1.863-5.757,4.426-7.62,7.618-1.863,3.195-2.808,6.722-2.808,10.484s.945,7.289,2.808,10.484c1.862,3.192,4.425,5.755,7.619,7.619,3.195,1.863,6.722,2.808,10.484,2.808,3.505,0,6.815-.824,9.835-2.449,3.016-1.622,5.514-3.86,7.425-6.651l.273-.4-2.376-1.76-.294,.432c-1.636,2.405-3.784,4.34-6.384,5.753-2.595,1.411-5.448,2.126-8.479,2.126-2.423,0-4.773-.477-6.985-1.417-2.214-.941-4.144-2.227-5.739-3.821-1.594-1.594-2.879-3.526-3.821-5.74-.94-2.212-1.417-4.562-1.417-6.984s.477-4.772,1.417-6.984c.942-2.215,2.227-4.146,3.821-5.74,1.595-1.594,3.526-2.879,5.739-3.821,2.212-.94,4.562-1.417,6.985-1.417,3.015,0,5.864,.711,8.467,2.113,2.609,1.404,4.76,3.335,6.396,5.738l.277,.407Z" style="fill:#0abdf0;"/><rect x="156.673" y="17.019" width="2.949" height="45.709" style="fill:#0abdf0;"/><rect x="160.56" y="17.019" width="2.949" height="45.709" style="fill:#0abdf0;"/><rect x="152.785" y="17.019" width="2.949" height="45.709" style="fill:#0abdf0;"/><rect x="195.546" y="17.019" width="2.949" height="45.709" style="fill:#0abdf0;"/><rect x="187.771" y="17.019" width="2.949" height="45.709" style="fill:#0abdf0;"/><path d="M167.396,45.208h16.488v17.52h2.949V17.019h-2.949v17.466h-16.488V17.019h-2.949V62.728h2.949v-17.52Zm16.488-3.887v.938h-16.488v-.938h16.488Zm-16.488-2.949v-.938h16.488v.938h-16.488Z" style="fill:#0abdf0;"/><rect x="191.658" y="17.019" width="2.949" height="45.709" style="fill:#0abdf0;"/><polygon points="209.529 62.728 212.478 62.728 212.478 27.742 213.417 27.742 213.417 62.728 216.365 62.728 216.365 27.742 217.304 27.742 217.304 62.728 220.253 62.728 220.253 27.742 221.191 27.742 221.191 62.728 224.14 62.728 224.14 27.742 231.915 27.742 231.915 24.793 201.755 24.793 201.755 27.742 209.529 27.742 209.529 62.728" style="fill:#0abdf0;"/><rect x="246.971" y="17.019" width="2.949" height="45.709" style="fill:#0abdf0;"/><rect x="239.196" y="17.019" width="2.949" height="45.709" style="fill:#0abdf0;"/><rect x="235.309" y="17.019" width="2.949" height="45.709" style="fill:#0abdf0;"/><rect x="243.084" y="17.019" width="2.949" height="45.709" style="fill:#0abdf0;"/><polygon points="294.57 17.019 291.621 17.019 291.621 50.377 294.57 55.373 294.57 17.019" style="fill:#0abdf0;"/><polygon points="286.796 17.019 283.847 17.019 283.847 37.638 286.796 42.512 286.796 17.019" style="fill:#0abdf0;"/><polygon points="290.683 17.019 287.734 17.019 287.734 43.953 290.683 48.908 290.683 17.019" style="fill:#0abdf0;"/><polygon points="256.993 22.457 281.746 62.728 285.165 62.728 257.148 17.019 254.044 17.019 254.044 62.728 256.993 62.728 256.993 22.457" style="fill:#0abdf0;"/><polygon points="260.88 62.728 260.88 29.37 257.931 24.373 257.931 62.728 260.88 62.728" style="fill:#0abdf0;"/><polygon points="261.657 17.019 258.209 17.019 286.309 62.728 289.756 62.728 261.804 17.258 261.657 17.019" style="fill:#0abdf0;"/><polygon points="262.799 17.019 290.697 62.488 290.843 62.728 294.344 62.728 266.274 17.019 262.799 17.019" style="fill:#0abdf0;"/><polygon points="298.458 62.728 298.458 17.019 295.509 17.019 295.509 57.286 270.809 17.019 267.362 17.019 295.378 62.728 298.458 62.728" style="fill:#0abdf0;"/><polygon points="268.654 62.728 268.654 42.108 265.706 37.235 265.706 62.728 268.654 62.728" style="fill:#0abdf0;"/><polygon points="264.767 62.728 264.767 35.794 261.818 30.838 261.818 62.728 264.767 62.728" style="fill:#0abdf0;"/><rect x="346.07" y="38.372" width="2.949" height="24.356" style="fill:#0abdf0;"/><rect x="342.183" y="38.372" width="2.949" height="24.356" style="fill:#0abdf0;"/><rect x="338.296" y="38.372" width="2.949" height="24.356" style="fill:#0abdf0;"/></g><g style="opacity:.3;"><path d="M85.593,84.072c-5-2.981-10.433-4.493-16.149-4.493H17.802v87.902h6.691V86.27h44.95c4.523,0,8.827,1.197,12.794,3.558,3.982,2.37,7.195,5.591,9.55,9.574,2.345,3.969,3.534,8.257,3.534,12.747,0,3.781-.703,7.391-2.09,10.729-1.388,3.34-3.271,6.212-5.597,8.539-2.332,2.333-5.117,4.21-8.277,5.581-3.144,1.363-6.479,2.055-9.914,2.055h-22.802v-.691h22.802c4.453,0,8.649-1.129,12.471-3.357,3.818-2.226,6.926-5.395,9.235-9.418,2.31-4.024,3.48-8.545,3.48-13.436,0-4.354-1.166-8.527-3.466-12.404-2.29-3.857-5.406-6.982-9.262-9.289-3.877-2.318-8.069-3.494-12.459-3.494H25.185v80.52h6.691V93.653h37.567c4.927,0,9.149,1.834,12.908,5.608,3.759,3.776,5.587,7.992,5.587,12.887,0,3.783-.873,7.224-2.596,10.225-1.72,2.998-3.999,5.321-6.773,6.904-2.782,1.587-5.853,2.392-9.126,2.392h-22.802v-.691h22.802c4.901,0,9.139-1.742,12.593-5.179,3.458-3.438,5.21-8.031,5.21-13.65,0-4.627-1.802-8.794-5.356-12.386-3.559-3.595-7.747-5.418-12.448-5.418H32.568v73.137h6.691V101.036h30.185c2.892,0,5.411,1.122,7.703,3.428,2.294,2.31,3.41,4.823,3.41,7.684,0,3.955-1.05,6.898-3.211,8.999-2.173,2.112-4.757,3.139-7.901,3.139h-22.802v-.691h22.802c4.754,0,10.421-1.986,10.421-11.446,0-2.79-1.034-5.25-3.075-7.311-2.045-2.063-4.517-3.11-7.346-3.11h-29.493v65.754h6.691v-21.738h22.802c4.34,0,8.528-.786,12.446-2.335,3.922-1.551,7.414-3.768,10.377-6.589,2.977-2.833,5.373-6.431,7.121-10.694,1.742-4.248,2.625-8.95,2.625-13.976,0-5.681-1.502-11.096-4.465-16.095-2.953-4.98-6.976-9.012-11.955-11.982Zm-38.951,24.347h22.802c1.07,0,1.942,.346,2.665,1.056,.716,.705,1.064,1.58,1.064,2.674,0,2.368-.514,3.379-.945,3.81-.636,.636-1.547,.945-2.785,.945h-22.802v-8.484Z" style="fill:#0abdf0;"/><path d="M193.119,123.53c0-7.241-1.82-14.033-5.409-20.187-3.585-6.146-8.518-11.08-14.663-14.665-6.153-3.588-12.945-5.408-20.188-5.408s-14.034,1.82-20.188,5.408c-6.147,3.586-11.081,8.52-14.665,14.665-3.588,6.152-5.408,12.944-5.408,20.187s1.819,14.034,5.408,20.188c3.584,6.145,8.519,11.079,14.665,14.664,6.151,3.589,12.943,5.409,20.188,5.409s14.036-1.82,20.188-5.408c6.145-3.584,11.078-8.518,14.663-14.664,3.589-6.155,5.409-12.947,5.409-20.188Zm-40.26,33.568c-4.527,0-8.919-.891-13.052-2.649-4.144-1.762-7.752-4.165-10.728-7.141-2.977-2.975-5.379-6.584-7.141-10.728-1.757-4.132-2.648-8.523-2.648-13.051s.891-8.918,2.648-13.051c1.763-4.145,4.165-7.754,7.142-10.729,2.975-2.976,6.583-5.378,10.727-7.14,4.133-1.758,8.524-2.649,13.052-2.649s8.917,.891,13.05,2.649c4.146,1.763,7.755,4.166,10.729,7.14,2.975,2.975,5.377,6.585,7.139,10.729,1.758,4.136,2.65,8.527,2.65,13.051s-.892,8.916-2.65,13.051c-1.761,4.143-4.164,7.752-7.14,10.729-2.974,2.975-6.583,5.377-10.729,7.14-4.133,1.758-8.523,2.649-13.05,2.649Z" style="fill:#0abdf0;"/><path d="M185.737,123.53c0-5.915-1.483-11.464-4.408-16.494-2.922-5.024-6.95-9.053-11.975-11.976-5.031-2.924-10.58-4.407-16.494-4.407s-11.463,1.483-16.495,4.408c-5.026,2.924-9.055,6.953-11.976,11.976-2.924,5.027-4.406,10.577-4.406,16.494s1.482,11.466,4.406,16.494h0c2.922,5.025,6.952,9.055,11.976,11.976,5.03,2.924,10.579,4.407,16.494,4.407s11.464-1.483,16.494-4.407c5.022-2.92,9.051-6.95,11.975-11.976,2.925-5.03,4.408-10.579,4.408-16.494Zm-32.877,26.186c-4.733,0-9.153-1.182-13.138-3.512-3.995-2.335-7.203-5.544-9.536-9.537-2.33-3.984-3.512-8.404-3.512-13.137s1.182-9.152,3.512-13.137h0c2.333-3.992,5.541-7.2,9.536-9.537,3.986-2.33,8.407-3.512,13.138-3.512s9.149,1.182,13.137,3.511c3.994,2.337,7.203,5.546,9.537,9.537,2.33,3.988,3.512,8.408,3.512,13.137s-1.182,9.15-3.512,13.137c-2.335,3.993-5.543,7.202-9.536,9.537-3.987,2.33-8.407,3.512-13.138,3.512Z" style="fill:#0abdf0;"/><path d="M178.354,123.53c0-3.434-.679-6.763-2.018-9.896-1.336-3.12-3.168-5.856-5.445-8.135-2.28-2.278-5.017-4.11-8.137-5.445-3.132-1.339-6.461-2.018-9.895-2.018s-6.765,.679-9.896,2.018c-3.117,1.333-5.854,3.166-8.135,5.445-2.281,2.282-4.113,5.019-5.445,8.135-1.339,3.128-2.018,6.458-2.018,9.896s.679,6.769,2.017,9.895c1.332,3.116,3.164,5.853,5.446,8.136,2.283,2.281,5.02,4.113,8.134,5.446,3.13,1.338,6.459,2.017,9.896,2.017s6.765-.679,9.895-2.017c3.117-1.333,5.854-3.166,8.137-5.446,2.278-2.279,4.11-5.016,5.445-8.135,1.338-3.131,2.017-6.46,2.017-9.896Zm-6.691,0c0,5.24-1.802,9.589-5.508,13.294-3.708,3.707-8.057,5.508-13.295,5.508s-9.589-1.802-13.295-5.508c-3.706-3.704-5.508-8.052-5.508-13.294s1.802-9.59,5.508-13.294h0c3.707-3.707,8.056-5.508,13.295-5.508s9.586,1.802,13.295,5.508c3.706,3.707,5.508,8.056,5.508,13.295Z" style="fill:#0abdf0;"/><path d="M186.553,89.837c-4.236-4.235-9.344-7.654-15.184-10.162-5.854-2.513-12.082-3.788-18.51-3.788s-12.657,1.274-18.512,3.788c-5.842,2.51-10.95,5.928-15.182,10.162-4.237,4.237-7.656,9.345-10.162,15.183-2.513,5.852-3.788,12.08-3.788,18.511s1.274,12.659,3.788,18.511c2.507,5.839,5.926,10.948,10.162,15.183,4.232,4.234,9.34,7.652,15.182,10.162,5.854,2.513,12.083,3.788,18.512,3.788s12.655-1.274,18.51-3.788c5.839-2.507,10.948-5.926,15.184-10.162,4.232-4.233,7.651-9.342,10.161-15.183,2.513-5.854,3.788-12.083,3.788-18.511s-1.274-12.656-3.788-18.511c-2.509-5.839-5.928-10.947-10.161-15.182Zm-33.693,74.645c-5.514,0-10.862-1.089-15.896-3.238-5.043-2.151-9.447-5.088-13.088-8.729-3.643-3.643-6.58-8.047-8.73-13.089-2.148-5.034-3.238-10.382-3.238-15.895s1.089-10.859,3.238-15.895h0c2.151-5.043,5.088-9.446,8.729-13.088,3.641-3.641,8.045-6.578,13.089-8.73,5.036-2.149,10.384-3.238,15.896-3.238s10.858,1.089,15.894,3.238c5.047,2.154,9.451,5.091,13.089,8.73,3.64,3.639,6.577,8.042,8.729,13.088,2.149,5.039,3.239,10.387,3.239,15.895s-1.09,10.857-3.239,15.895c-2.152,5.045-5.089,9.449-8.73,13.088-3.639,3.64-8.042,6.577-13.088,8.73-5.034,2.148-10.381,3.238-15.894,3.238Z" style="fill:#0abdf0;"/><path d="M264.663,104.288c2.343,2.359,3.481,4.93,3.481,7.86,0,4.026-1.075,7.028-3.287,9.178-2.221,2.16-4.863,3.209-8.075,3.209h-22.682v6.191h22.682c4.833,0,9.01-1.718,12.417-5.106,3.408-3.389,5.136-7.922,5.136-13.473,0-4.559-1.777-8.667-5.284-12.21-3.51-3.546-7.638-5.344-12.269-5.344h-36.627v72.637h6.191V100.786h30.436c2.961,0,5.539,1.146,7.88,3.502Z" style="fill:#0abdf0;"/><path d="M259.623,109.297c.766,.754,1.139,1.687,1.139,2.852,0,1.942-.352,3.321-1.018,3.987-.685,.685-1.654,1.018-2.961,1.018h-22.682v6.191h22.682c4.64,0,10.17-1.942,10.17-11.196,0-2.722-1.01-5.122-3.002-7.135-1.996-2.015-4.408-3.036-7.168-3.036h-29.244v65.254h6.191v-59.062h23.053c1.138,0,2.067,.369,2.84,1.128Z" style="fill:#0abdf0;"/><path d="M269.868,99.085c3.808,3.826,5.66,8.099,5.66,13.063,0,3.828-.884,7.31-2.628,10.35-1.743,3.037-4.053,5.391-6.867,6.996-2.82,1.609-5.932,2.425-9.25,2.425h-22.682v6.191h22.682c4.409,0,8.562-1.118,12.344-3.323,3.78-2.204,6.856-5.341,9.145-9.327,2.287-3.985,3.447-8.463,3.447-13.312,0-4.31-1.154-8.439-3.43-12.276-2.269-3.82-5.355-6.916-9.175-9.202-3.839-2.295-7.987-3.458-12.331-3.458h-44.01v80.02h6.191V93.403h37.818c4.997,0,9.277,1.858,13.085,5.682Z" style="fill:#0abdf0;"/><path d="M272.805,84.286c-4.961-2.958-10.352-4.458-16.021-4.458h-51.393v87.402h6.191V86.02h45.201c4.568,0,8.916,1.209,12.921,3.593,4.019,2.392,7.262,5.643,9.638,9.661,2.368,4.008,3.568,8.34,3.568,12.874,0,3.814-.709,7.456-2.108,10.825-1.399,3.369-3.301,6.269-5.651,8.619-2.355,2.355-5.167,4.25-8.355,5.633-3.175,1.377-6.544,2.076-10.012,2.076h-22.682v6.191h22.682c4.308,0,8.465-.78,12.354-2.318,3.892-1.539,7.356-3.738,10.297-6.538,2.952-2.809,5.328-6.378,7.062-10.608,1.729-4.218,2.605-8.888,2.605-13.881,0-5.637-1.49-11.009-4.43-15.967-2.933-4.944-6.926-8.946-11.868-11.895Z" style="fill:#0abdf0;"/><polygon points="316.601 167.481 362.566 167.481 362.566 160.79 323.293 160.79 323.293 160.098 362.566 160.098 362.566 153.407 323.293 153.407 323.293 152.716 362.566 152.716 362.566 146.024 323.293 146.024 323.293 134.259 343.442 134.259 343.442 127.567 323.293 127.567 323.293 126.876 343.442 126.876 343.442 120.184 323.293 120.184 323.293 119.493 343.442 119.493 343.442 112.802 323.293 112.802 323.293 101.036 362.566 101.036 362.566 94.345 323.293 94.345 323.293 93.653 362.566 93.653 362.566 86.962 323.293 86.962 323.293 86.27 362.566 86.27 362.566 79.579 316.601 79.579 316.601 167.481" style="fill:#0abdf0;"/><rect x="309.219" y="79.579" width="6.691" height="87.902" style="fill:#0abdf0;"/><rect x="301.836" y="79.579" width="6.691" height="87.902" style="fill:#0abdf0;"/><rect x="294.453" y="79.579" width="6.691" height="87.902" style="fill:#0abdf0;"/><rect x="383.405" y="79.579" width="6.691" height="87.902" style="fill:#0abdf0;"/><polygon points="397.479 79.579 390.788 79.579 390.788 167.481 427.011 167.481 427.011 160.79 397.479 160.79 397.479 160.098 427.011 160.098 427.011 153.407 397.479 153.407 397.479 152.716 427.011 152.716 427.011 146.024 397.479 146.024 397.479 79.579" style="fill:#0abdf0;"/><rect x="376.022" y="79.579" width="6.691" height="87.902" style="fill:#0abdf0;"/><rect x="368.639" y="79.579" width="6.691" height="87.902" style="fill:#0abdf0;"/><polygon points="490.534 152.716 490.534 146.024 461.003 146.024 461.003 79.579 454.311 79.579 454.311 167.481 490.534 167.481 490.534 160.79 461.003 160.79 461.003 160.098 490.534 160.098 490.534 153.407 461.003 153.407 461.003 152.716 490.534 152.716" style="fill:#0abdf0;"/><rect x="446.929" y="79.579" width="6.691" height="87.902" style="fill:#0abdf0;"/><rect x="439.546" y="79.579" width="6.691" height="87.902" style="fill:#0abdf0;"/><rect x="432.163" y="79.579" width="6.691" height="87.902" style="fill:#0abdf0;"/></g></g><g id="b"><g style="opacity:.3;"><path d="M318.059,56.512c3.716,0,7.354-.665,10.814-1.976l.325-.123V30.212h-2.949v10.01c-2.416,1.114-5.052,1.679-7.839,1.679-1.396,0-2.718-.205-3.93-.608-1.206-.402-2.316-1.009-3.298-1.804-.966-.782-1.738-1.843-2.296-3.154-.564-1.324-.851-2.879-.851-4.622,0-2.8,1.004-5.223,2.984-7.203,1.981-1.98,4.405-2.984,7.203-2.984,1.726,0,3.348,.402,4.824,1.196,1.476,.793,2.693,1.888,3.614,3.253l.278,.413,2.431-1.607-.283-.421c-1.192-1.769-2.758-3.19-4.657-4.224-1.902-1.034-3.99-1.559-6.207-1.559-1.77,0-3.485,.349-5.097,1.04-1.611,.689-3.021,1.633-4.194,2.806-1.174,1.173-2.118,2.584-2.807,4.194-.69,1.611-1.04,3.326-1.04,5.097,0,2.129,.372,4.071,1.107,5.774,.739,1.712,1.759,3.115,3.029,4.169,1.255,1.042,2.684,1.844,4.247,2.383,1.557,.537,3.237,.81,4.997,.81,2.755,0,5.37-.486,7.784-1.447v.78c-2.486,1.083-5.185,1.632-8.028,1.632-1.475,0-2.918-.198-4.29-.588-1.367-.39-2.661-.982-3.843-1.759-1.184-.778-2.23-1.732-3.109-2.836-.877-1.098-1.575-2.426-2.075-3.947-.503-1.525-.758-3.198-.758-4.971,0-2.544,.635-4.919,1.889-7.062,1.255-2.146,2.979-3.87,5.125-5.124,2.142-1.253,4.518-1.889,7.061-1.889,2.369,0,4.6,.556,6.632,1.654,2.033,1.099,3.713,2.604,4.994,4.472l.277,.404,2.461-1.599-.288-.424c-1.551-2.289-3.586-4.123-6.049-5.452-2.466-1.33-5.166-2.004-8.027-2.004-3.064,0-5.937,.768-8.539,2.282-2.603,1.513-4.689,3.6-6.203,6.202-1.514,2.604-2.281,5.478-2.281,8.54,0,2.611,.477,5.04,1.417,7.219,.945,2.184,2.237,4.006,3.842,5.415,1.594,1.402,3.441,2.5,5.487,3.265,2.045,.765,4.22,1.152,6.465,1.152,2.701,0,5.333-.444,7.839-1.321v.872c-2.536,.903-5.234,1.361-8.028,1.361-1.868,0-3.715-.266-5.486-.789-1.768-.523-3.424-1.304-4.921-2.323-1.497-1.018-2.826-2.254-3.951-3.675-1.119-1.415-2.008-3.098-2.644-5.003-.637-1.909-.96-3.985-.96-6.172,0-2.422,.477-4.772,1.417-6.984,.942-2.215,2.227-4.146,3.821-5.74,1.594-1.593,3.525-2.879,5.74-3.821,2.213-.94,4.562-1.417,6.984-1.417,3.015,0,5.863,.711,8.468,2.113,2.607,1.404,4.759,3.334,6.396,5.738l.277,.407,2.462-1.601-.289-.425c-1.908-2.807-4.41-5.063-7.437-6.706-3.031-1.643-6.354-2.477-9.877-2.477-3.762,0-7.289,.945-10.484,2.808-3.193,1.863-5.756,4.426-7.619,7.618-1.864,3.194-2.808,6.722-2.808,10.484,0,2.491,.377,4.875,1.12,7.084,.743,2.213,1.788,4.18,3.105,5.847,1.312,1.661,2.864,3.112,4.618,4.314,1.754,1.203,3.69,2.125,5.756,2.74,2.062,.614,4.213,.925,6.392,.925,2.752,0,5.422-.391,7.947-1.163v.811c-5.25,1.704-11.206,1.825-16.449-.306-2.611-1.06-4.935-2.539-6.905-4.394-1.964-1.851-3.559-4.183-4.742-6.932-1.182-2.75-1.781-5.753-1.781-8.926,0-2.942,.581-5.796,1.728-8.481,1.148-2.69,2.715-5.04,4.658-6.982,1.944-1.943,4.293-3.51,6.982-4.658,2.687-1.147,5.54-1.728,8.481-1.728,3.66,0,7.117,.861,10.277,2.559,3.162,1.699,5.777,4.043,7.773,6.967l.277,.406,2.463-1.601-.29-.425c-2.266-3.326-5.232-5.995-8.814-7.934-3.586-1.939-7.517-2.922-11.685-2.922-3.346,0-6.588,.663-9.633,1.971-3.042,1.306-5.701,3.086-7.905,5.29-2.204,2.204-3.983,4.864-5.289,7.905-1.309,3.044-1.971,6.285-1.971,9.633,0,3.615,.681,7.029,2.025,10.147,1.345,3.117,3.169,5.771,5.423,7.888,2.25,2.112,4.891,3.785,7.849,4.972,2.963,1.188,6.105,1.791,9.339,1.791Z" style="fill:#fe0101;"/><path d="M11.63,34.292c1.331,1.472,3.055,2.641,5.124,3.477,2.057,.83,4.387,1.251,6.924,1.251h2.915c.625,0,1.057,.12,1.249,.349,.22,.26,.327,.617,.327,1.093,0,.439-.18,.76-.566,1.008-.306,.197-1.049,.433-2.846,.433-3.099,0-5.272-.275-6.459-.818l-.273-.125-2.403,1.823,.646,.38c1.905,1.121,4.761,1.689,8.488,1.689,5.213,0,6.307-2.387,6.307-4.39,0-1.268-.349-2.323-1.038-3.133-.709-.834-1.846-1.257-3.379-1.257h-2.969c-2.776,0-5.206-.599-7.224-1.781-2.011-1.177-3.526-2.755-4.502-4.692-.985-1.953-1.485-4.184-1.485-6.63,0-1.813,.336-3.527,.999-5.095,.664-1.567,1.624-2.965,2.856-4.153,1.229-1.186,2.821-2.134,4.733-2.818,1.925-.688,4.116-1.037,6.512-1.037,3.081,0,6.007,.45,8.697,1.338,2.674,.883,4.929,2.141,6.705,3.742l.306,.276,2.38-1.765-.439-.412c-2.059-1.93-4.662-3.451-7.737-4.521-3.062-1.067-6.396-1.607-9.911-1.607-2.248,0-4.369,.274-6.304,.815-1.943,.543-3.646,1.311-5.062,2.283-1.415,.971-2.644,2.139-3.654,3.472-1.011,1.336-1.777,2.822-2.278,4.418-.499,1.59-.752,3.293-.752,5.064,0,2.21,.355,4.302,1.056,6.219,.703,1.924,1.731,3.642,3.056,5.105Z" style="fill:#fe0101;"/><rect x="45.23" y="12.747" width="30.16" height="2.949" style="fill:#fe0101;"/><rect x="45.23" y="8.859" width="30.16" height="2.949" style="fill:#fe0101;"/><path d="M103.781,49.252c2.204,2.204,4.864,3.983,7.905,5.29,3.046,1.308,6.286,1.971,9.634,1.971,4.149,0,8.071-.978,11.657-2.908,3.581-1.927,6.546-4.573,8.814-7.865l.272-.395-2.368-1.798-.298,.437c-1.995,2.923-4.616,5.277-7.789,6.995-3.167,1.715-6.628,2.585-10.288,2.585-2.941,0-5.795-.581-8.482-1.728-2.689-1.148-5.038-2.715-6.982-4.658-1.943-1.943-3.51-4.292-4.658-6.982-1.147-2.687-1.728-5.54-1.728-8.481s.581-5.794,1.728-8.481c1.148-2.69,2.715-5.04,4.658-6.982,1.944-1.943,4.293-3.51,6.982-4.658,2.687-1.147,5.541-1.728,8.482-1.728,3.66,0,7.117,.861,10.275,2.559,3.162,1.699,5.778,4.043,7.774,6.967l.277,.406,2.462-1.601-.29-.425c-2.267-3.326-5.233-5.995-8.815-7.934-3.586-1.939-7.518-2.922-11.685-2.922-3.347,0-6.588,.663-9.634,1.971-3.041,1.307-5.701,3.086-7.905,5.29s-3.984,4.864-5.29,7.905c-1.307,3.046-1.971,6.286-1.971,9.633s.663,6.587,1.971,9.633c1.306,3.041,3.085,5.701,5.29,7.905Z" style="fill:#fe0101;"/><rect x="193.595" y="12.747" width="30.16" height="2.949" style="fill:#fe0101;"/><rect x="193.595" y="8.859" width="30.16" height="2.949" style="fill:#fe0101;"/><path d="M38.333,17.702l2.298-1.846-.454-.395c-1.7-1.478-3.854-2.638-6.4-3.447-2.531-.804-5.293-1.211-8.21-1.211-4.43,0-7.932,1.157-10.41,3.44-2.49,2.293-3.752,5.228-3.752,8.724s1.095,6.41,3.255,8.699c2.167,2.299,5.201,3.465,9.017,3.465h2.942c1.944,0,3.352,.482,4.184,1.434,.849,.972,1.28,2.282,1.28,3.894s-.556,2.863-1.701,3.843c-1.151,.986-3.044,1.485-5.625,1.485-4.106,0-7.28-.751-9.433-2.233l-.302-.208-2.343,1.809,.514,.398c1.324,1.026,3.023,1.823,5.05,2.37,2.004,.539,4.196,.813,6.515,.813,3.369,0,5.947-.769,7.662-2.286,1.734-1.532,2.613-3.548,2.613-5.991,0-2.385-.706-4.378-2.1-5.925-1.407-1.561-3.522-2.352-6.285-2.352h-2.969c-3.007,0-5.335-.868-6.92-2.579-1.595-1.722-2.404-3.955-2.404-6.637,0-2.72,.931-4.885,2.845-6.619,1.902-1.723,4.718-2.596,8.368-2.596,2.512,0,4.888,.329,7.064,.978,2.157,.644,3.969,1.557,5.387,2.715l.316,.258Z" style="fill:#fe0101;"/><path d="M24.757,56.512c2.248,0,4.369-.274,6.304-.815,1.943-.543,3.646-1.311,5.062-2.283,1.415-.971,2.644-2.139,3.654-3.472,1.011-1.336,1.778-2.823,2.278-4.418,.499-1.589,.752-3.293,.752-5.064,0-2.171-.346-4.24-1.028-6.148-.684-1.913-1.688-3.63-2.985-5.104-1.304-1.481-2.986-2.665-4.999-3.518-2.007-.85-4.285-1.281-6.77-1.281h-3.347c-.607,0-1.024-.115-1.208-.334-.208-.247-.314-.619-.314-1.107,0-.439,.18-.759,.565-1.008,.307-.197,1.05-.433,2.846-.433,3.079,0,5.243,.275,6.432,.818l.273,.125,2.403-1.823-.646-.38c-1.905-1.121-4.752-1.689-8.461-1.689-5.213,0-6.307,2.387-6.307,4.39,0,1.288,.35,2.348,1.04,3.149,.708,.823,1.844,1.241,3.377,1.241h3.266c2.7,0,5.069,.611,7.04,1.816,1.969,1.204,3.454,2.792,4.414,4.722,.968,1.945,1.459,4.154,1.459,6.565,0,1.813-.336,3.528-.999,5.095-.663,1.567-1.624,2.965-2.856,4.153-1.229,1.186-2.821,2.134-4.734,2.818-1.925,.688-4.116,1.037-6.512,1.037-3.081,0-6.012-.45-8.711-1.339-2.683-.882-4.943-2.141-6.718-3.742l-.305-.276-2.38,1.764,.439,.412c2.058,1.93,4.666,3.451,7.751,4.521,3.071,1.067,6.41,1.607,9.924,1.607Z" style="fill:#fe0101;"/><path d="M25.567,14.69c-3.368,0-5.946,.769-7.662,2.286-1.734,1.533-2.613,3.549-2.613,5.991,0,2.423,.707,4.426,2.102,5.954,1.406,1.542,3.52,2.324,6.284,2.324h3.05c2.97,0,5.275,.872,6.85,2.591,1.587,1.731,2.392,3.96,2.392,6.625,0,2.721-.931,4.886-2.845,6.619-1.901,1.723-4.717,2.596-8.368,2.596-2.513,0-4.894-.329-7.078-.978-2.166-.643-3.983-1.557-5.399-2.715l-.316-.258-2.298,1.846,.454,.395c1.7,1.478,3.858,2.638,6.414,3.447,2.538,.804,5.304,1.211,8.223,1.211,4.429,0,7.931-1.157,10.41-3.44,2.49-2.293,3.752-5.229,3.752-8.724,0-3.426-1.085-6.338-3.224-8.656-2.151-2.328-5.159-3.509-8.94-3.509h-3.077c-1.945,0-3.347-.478-4.17-1.421-.84-.962-1.266-2.277-1.266-3.907,0-1.606,.556-2.863,1.701-3.843,1.151-.986,3.044-1.485,5.625-1.485,4.088,0,7.252,.751,9.407,2.233l.302,.208,2.343-1.809-.514-.398c-1.326-1.026-3.02-1.823-5.036-2.369-1.996-.54-4.183-.814-6.502-.814Z" style="fill:#fe0101;"/><polygon points="53.004 54.568 55.953 54.568 55.953 19.583 56.892 19.583 56.892 54.568 59.84 54.568 59.84 19.583 60.779 19.583 60.779 54.568 63.728 54.568 63.728 19.583 64.666 19.583 64.666 54.568 67.615 54.568 67.615 19.583 75.39 19.583 75.39 16.634 45.23 16.634 45.23 19.583 53.004 19.583 53.004 54.568" style="fill:#fe0101;"/><rect x="78.785" y="8.859" width="2.949" height="45.709" style="fill:#fe0101;"/><rect x="86.559" y="8.859" width="2.949" height="45.709" style="fill:#fe0101;"/><rect x="90.447" y="8.859" width="2.949" height="45.709" style="fill:#fe0101;"/><rect x="82.672" y="8.859" width="2.949" height="45.709" style="fill:#fe0101;"/><path d="M121.319,21.526c1.725,0,3.348,.402,4.823,1.196,1.477,.793,2.693,1.888,3.614,3.253l.279,.413,2.431-1.607-.284-.42c-1.193-1.77-2.76-3.191-4.657-4.224-1.902-1.034-3.99-1.559-6.206-1.559-1.769,0-3.485,.349-5.098,1.04-1.609,.688-3.02,1.633-4.192,2.806-1.174,1.173-2.118,2.584-2.806,4.193-.69,1.609-1.04,3.324-1.04,5.098s.35,3.488,1.04,5.097c.689,1.61,1.632,3.021,2.807,4.194,1.174,1.175,2.584,2.119,4.192,2.806,1.612,.69,3.327,1.04,5.098,1.04,2.198,0,4.277-.52,6.177-1.545,1.899-1.024,3.467-2.431,4.657-4.182l.274-.403-2.381-1.725-.291,.43c-.921,1.365-2.138,2.465-3.616,3.268-1.474,.802-3.097,1.208-4.821,1.208-2.801,0-5.224-1.004-7.203-2.984-1.98-1.979-2.984-4.402-2.984-7.203s1.004-5.224,2.984-7.203c1.98-1.98,4.403-2.984,7.203-2.984Z" style="fill:#fe0101;"/><path d="M133.22,24.169l2.461-1.599-.287-.424c-1.551-2.289-3.585-4.123-6.048-5.452-2.466-1.33-5.166-2.004-8.027-2.004-3.064,0-5.936,.768-8.54,2.282-2.602,1.513-4.689,3.599-6.203,6.202-1.514,2.603-2.281,5.477-2.281,8.54s.768,5.937,2.281,8.54c1.515,2.603,3.602,4.69,6.203,6.201,2.602,1.514,5.476,2.282,8.54,2.282,2.861,0,5.561-.674,8.027-2.004,2.463-1.329,4.498-3.163,6.048-5.452l.278-.411-2.417-1.681-.285,.421c-1.28,1.886-2.964,3.403-5.007,4.511-2.04,1.106-4.275,1.667-6.644,1.667-2.544,0-4.92-.636-7.061-1.889-2.147-1.255-3.872-2.979-5.125-5.124-1.254-2.142-1.889-4.518-1.889-7.062s.636-4.919,1.889-7.062c1.254-2.145,2.977-3.869,5.125-5.124,2.141-1.253,4.518-1.889,7.061-1.889,2.369,0,4.6,.556,6.631,1.654,2.035,1.1,3.715,2.604,4.994,4.472l.277,.404Z" style="fill:#fe0101;"/><path d="M136.459,22.01l2.462-1.601-.288-.425c-1.907-2.807-4.41-5.063-7.436-6.706-3.031-1.643-6.355-2.477-9.877-2.477-3.762,0-7.289,.945-10.484,2.808-3.194,1.863-5.757,4.426-7.62,7.618-1.863,3.195-2.808,6.722-2.808,10.484s.945,7.289,2.808,10.484c1.862,3.192,4.425,5.755,7.619,7.619,3.195,1.863,6.722,2.808,10.484,2.808,3.505,0,6.815-.824,9.835-2.449,3.016-1.622,5.514-3.86,7.425-6.651l.273-.4-2.376-1.76-.294,.432c-1.636,2.405-3.784,4.34-6.384,5.753-2.595,1.411-5.448,2.126-8.479,2.126-2.423,0-4.773-.477-6.985-1.417-2.214-.941-4.144-2.227-5.739-3.821-1.594-1.594-2.879-3.526-3.821-5.74-.94-2.212-1.417-4.562-1.417-6.984s.477-4.772,1.417-6.984c.942-2.215,2.227-4.146,3.821-5.74,1.595-1.594,3.526-2.879,5.739-3.821,2.212-.94,4.562-1.417,6.985-1.417,3.015,0,5.864,.711,8.467,2.113,2.609,1.404,4.76,3.335,6.396,5.738l.277,.407Z" style="fill:#fe0101;"/><rect x="148.514" y="8.859" width="2.949" height="45.709" style="fill:#fe0101;"/><rect x="152.401" y="8.859" width="2.949" height="45.709" style="fill:#fe0101;"/><rect x="144.626" y="8.859" width="2.949" height="45.709" style="fill:#fe0101;"/><rect x="187.387" y="8.859" width="2.949" height="45.709" style="fill:#fe0101;"/><rect x="179.612" y="8.859" width="2.949" height="45.709" style="fill:#fe0101;"/><path d="M159.237,37.049h16.488v17.52h2.949V8.859h-2.949V26.325h-16.488V8.859h-2.949V54.568h2.949v-17.52Zm16.488-3.887v.938h-16.488v-.938h16.488Zm-16.488-2.949v-.938h16.488v.938h-16.488Z" style="fill:#fe0101;"/><rect x="183.499" y="8.859" width="2.949" height="45.709" style="fill:#fe0101;"/><polygon points="201.37 54.568 204.319 54.568 204.319 19.583 205.257 19.583 205.257 54.568 208.206 54.568 208.206 19.583 209.145 19.583 209.145 54.568 212.093 54.568 212.093 19.583 213.032 19.583 213.032 54.568 215.981 54.568 215.981 19.583 223.755 19.583 223.755 16.634 193.595 16.634 193.595 19.583 201.37 19.583 201.37 54.568" style="fill:#fe0101;"/><rect x="238.812" y="8.859" width="2.949" height="45.709" style="fill:#fe0101;"/><rect x="231.037" y="8.859" width="2.949" height="45.709" style="fill:#fe0101;"/><rect x="227.15" y="8.859" width="2.949" height="45.709" style="fill:#fe0101;"/><rect x="234.924" y="8.859" width="2.949" height="45.709" style="fill:#fe0101;"/><polygon points="286.411 8.859 283.462 8.859 283.462 42.217 286.411 47.214 286.411 8.859" style="fill:#fe0101;"/><polygon points="278.636 8.859 275.688 8.859 275.688 29.479 278.636 34.353 278.636 8.859" style="fill:#fe0101;"/><polygon points="282.524 8.859 279.575 8.859 279.575 35.794 282.524 40.749 282.524 8.859" style="fill:#fe0101;"/><polygon points="248.833 14.298 273.587 54.568 277.006 54.568 248.989 8.859 245.884 8.859 245.884 54.568 248.833 54.568 248.833 14.298" style="fill:#fe0101;"/><polygon points="252.721 54.568 252.721 21.21 249.772 16.214 249.772 54.568 252.721 54.568" style="fill:#fe0101;"/><polygon points="253.498 8.859 250.05 8.859 278.15 54.568 281.597 54.568 253.644 9.099 253.498 8.859" style="fill:#fe0101;"/><polygon points="254.64 8.859 282.537 54.329 282.684 54.568 286.185 54.568 258.114 8.859 254.64 8.859" style="fill:#fe0101;"/><polygon points="290.298 54.568 290.298 8.859 287.349 8.859 287.349 49.127 262.649 8.859 259.203 8.859 287.219 54.568 290.298 54.568" style="fill:#fe0101;"/><polygon points="260.495 54.568 260.495 33.949 257.546 29.075 257.546 54.568 260.495 54.568" style="fill:#fe0101;"/><polygon points="256.608 54.568 256.608 27.634 253.659 22.679 253.659 54.568 256.608 54.568" style="fill:#fe0101;"/><rect x="337.911" y="30.212" width="2.949" height="24.356" style="fill:#fe0101;"/><rect x="334.024" y="30.212" width="2.949" height="24.356" style="fill:#fe0101;"/><rect x="330.136" y="30.212" width="2.949" height="24.356" style="fill:#fe0101;"/></g><g style="opacity:.3;"><path d="M77.433,75.912c-5-2.981-10.433-4.493-16.149-4.493H9.643v87.902h6.691V78.111H61.284c4.523,0,8.827,1.197,12.794,3.558,3.982,2.37,7.195,5.591,9.55,9.574,2.345,3.969,3.534,8.257,3.534,12.747,0,3.781-.703,7.391-2.09,10.729-1.388,3.34-3.271,6.212-5.597,8.539-2.332,2.333-5.117,4.21-8.277,5.581-3.144,1.363-6.479,2.055-9.914,2.055h-22.802v-.691h22.802c4.453,0,8.649-1.129,12.471-3.357,3.818-2.226,6.926-5.395,9.235-9.418,2.31-4.024,3.48-8.545,3.48-13.436,0-4.354-1.166-8.527-3.466-12.404-2.29-3.857-5.406-6.982-9.262-9.289-3.877-2.318-8.069-3.494-12.459-3.494H17.026v80.52h6.691V85.494H61.284c4.927,0,9.149,1.834,12.908,5.608,3.759,3.776,5.587,7.992,5.587,12.887,0,3.783-.873,7.224-2.596,10.225-1.72,2.998-3.999,5.321-6.773,6.904-2.782,1.587-5.853,2.392-9.126,2.392h-22.802v-.691h22.802c4.901,0,9.139-1.742,12.593-5.179,3.458-3.438,5.21-8.031,5.21-13.65,0-4.627-1.802-8.794-5.356-12.386-3.559-3.595-7.747-5.418-12.448-5.418H24.408v73.137h6.691V92.877h30.185c2.892,0,5.411,1.122,7.703,3.428,2.294,2.31,3.41,4.823,3.41,7.684,0,3.955-1.05,6.898-3.211,8.999-2.173,2.112-4.757,3.139-7.901,3.139h-22.802v-.691h22.802c4.754,0,10.421-1.986,10.421-11.446,0-2.79-1.034-5.25-3.075-7.311-2.045-2.063-4.517-3.11-7.346-3.11H31.791v65.754h6.691v-21.738h22.802c4.34,0,8.528-.786,12.446-2.335,3.922-1.551,7.414-3.768,10.377-6.589,2.977-2.833,5.373-6.431,7.121-10.694,1.742-4.248,2.625-8.95,2.625-13.976,0-5.681-1.502-11.096-4.465-16.095-2.953-4.98-6.976-9.012-11.955-11.982Zm-38.951,24.347h22.802c1.07,0,1.942,.346,2.665,1.056,.716,.705,1.064,1.58,1.064,2.674,0,2.368-.514,3.379-.945,3.81-.636,.636-1.547,.945-2.785,.945h-22.802v-8.484Z" style="fill:#fe0101;"/><path d="M184.96,115.371c0-7.241-1.82-14.033-5.409-20.187-3.585-6.146-8.518-11.08-14.663-14.665-6.153-3.588-12.945-5.408-20.188-5.408s-14.034,1.82-20.188,5.408c-6.147,3.586-11.081,8.52-14.665,14.665-3.588,6.152-5.408,12.944-5.408,20.187s1.819,14.034,5.408,20.188c3.584,6.145,8.519,11.079,14.665,14.664,6.151,3.589,12.943,5.409,20.188,5.409s14.036-1.82,20.188-5.408c6.145-3.584,11.078-8.518,14.663-14.664,3.589-6.155,5.409-12.947,5.409-20.188Zm-40.26,33.568c-4.527,0-8.919-.891-13.052-2.649-4.144-1.762-7.752-4.165-10.728-7.141-2.977-2.975-5.379-6.584-7.141-10.728-1.757-4.132-2.648-8.523-2.648-13.051s.891-8.918,2.648-13.051c1.763-4.145,4.165-7.754,7.142-10.729,2.975-2.976,6.583-5.378,10.727-7.14,4.133-1.758,8.524-2.649,13.052-2.649s8.917,.891,13.05,2.649c4.146,1.763,7.755,4.166,10.729,7.14,2.975,2.975,5.377,6.585,7.139,10.729,1.758,4.136,2.65,8.527,2.65,13.051s-.892,8.916-2.65,13.051c-1.761,4.143-4.164,7.752-7.14,10.729-2.974,2.975-6.583,5.377-10.729,7.14-4.133,1.758-8.523,2.649-13.05,2.649Z" style="fill:#fe0101;"/><path d="M177.577,115.371c0-5.915-1.483-11.464-4.408-16.494-2.922-5.024-6.95-9.053-11.975-11.976-5.031-2.924-10.58-4.407-16.494-4.407s-11.463,1.483-16.495,4.408c-5.026,2.924-9.055,6.953-11.976,11.976-2.924,5.027-4.406,10.577-4.406,16.494s1.482,11.466,4.406,16.494h0c2.922,5.025,6.952,9.055,11.976,11.976,5.03,2.924,10.579,4.407,16.494,4.407s11.464-1.483,16.494-4.407c5.022-2.92,9.051-6.95,11.975-11.976,2.925-5.03,4.408-10.579,4.408-16.494Zm-32.877,26.186c-4.733,0-9.153-1.182-13.138-3.512-3.995-2.335-7.203-5.544-9.536-9.537-2.33-3.984-3.512-8.404-3.512-13.137s1.182-9.152,3.512-13.137h0c2.333-3.992,5.541-7.2,9.536-9.537,3.986-2.33,8.407-3.512,13.138-3.512s9.149,1.182,13.137,3.511c3.994,2.337,7.203,5.546,9.537,9.537,2.33,3.988,3.512,8.408,3.512,13.137s-1.182,9.15-3.512,13.137c-2.335,3.993-5.543,7.202-9.536,9.537-3.987,2.33-8.407,3.512-13.138,3.512Z" style="fill:#fe0101;"/><path d="M170.195,115.371c0-3.434-.679-6.763-2.018-9.896-1.336-3.12-3.168-5.856-5.445-8.135-2.28-2.278-5.017-4.11-8.137-5.445-3.132-1.339-6.461-2.018-9.895-2.018s-6.765,.679-9.896,2.018c-3.117,1.333-5.854,3.166-8.135,5.445-2.281,2.282-4.113,5.019-5.445,8.135-1.339,3.128-2.018,6.458-2.018,9.896s.679,6.769,2.017,9.895c1.332,3.116,3.164,5.853,5.446,8.136,2.283,2.281,5.02,4.113,8.134,5.446,3.13,1.338,6.459,2.017,9.896,2.017s6.765-.679,9.895-2.017c3.117-1.333,5.854-3.166,8.137-5.446,2.278-2.279,4.11-5.016,5.445-8.135,1.338-3.131,2.017-6.46,2.017-9.896Zm-6.691,0c0,5.24-1.802,9.589-5.508,13.294-3.708,3.707-8.057,5.508-13.295,5.508s-9.589-1.802-13.295-5.508c-3.706-3.704-5.508-8.052-5.508-13.294s1.802-9.59,5.508-13.294h0c3.707-3.707,8.056-5.508,13.295-5.508s9.586,1.802,13.295,5.508c3.706,3.707,5.508,8.056,5.508,13.295Z" style="fill:#fe0101;"/><path d="M178.394,81.677c-4.236-4.235-9.344-7.654-15.184-10.162-5.854-2.513-12.082-3.788-18.51-3.788s-12.657,1.274-18.512,3.788c-5.842,2.51-10.95,5.928-15.182,10.162-4.237,4.237-7.656,9.345-10.162,15.183-2.513,5.852-3.788,12.08-3.788,18.511s1.274,12.659,3.788,18.511c2.507,5.839,5.926,10.948,10.162,15.183,4.232,4.234,9.34,7.652,15.182,10.162,5.854,2.513,12.083,3.788,18.512,3.788s12.655-1.274,18.51-3.788c5.839-2.507,10.948-5.926,15.184-10.162,4.232-4.233,7.651-9.342,10.161-15.183,2.513-5.854,3.788-12.083,3.788-18.511s-1.274-12.656-3.788-18.511c-2.509-5.839-5.928-10.947-10.161-15.182Zm-33.693,74.645c-5.514,0-10.862-1.089-15.896-3.238-5.043-2.151-9.447-5.088-13.088-8.729-3.643-3.643-6.58-8.047-8.73-13.089-2.148-5.034-3.238-10.382-3.238-15.895s1.089-10.859,3.238-15.895h0c2.151-5.043,5.088-9.446,8.729-13.088,3.641-3.641,8.045-6.578,13.089-8.73,5.036-2.149,10.384-3.238,15.896-3.238s10.858,1.089,15.894,3.238c5.047,2.154,9.451,5.091,13.089,8.73,3.64,3.639,6.577,8.042,8.729,13.088,2.149,5.039,3.239,10.387,3.239,15.895s-1.09,10.857-3.239,15.895c-2.152,5.045-5.089,9.449-8.73,13.088-3.639,3.64-8.042,6.577-13.088,8.73-5.034,2.148-10.381,3.238-15.894,3.238Z" style="fill:#fe0101;"/><path d="M256.504,96.129c2.343,2.359,3.481,4.93,3.481,7.86,0,4.026-1.075,7.028-3.287,9.178-2.221,2.16-4.863,3.209-8.075,3.209h-22.682v6.191h22.682c4.833,0,9.01-1.718,12.417-5.106,3.408-3.389,5.136-7.922,5.136-13.473,0-4.559-1.777-8.667-5.284-12.21-3.51-3.546-7.638-5.344-12.269-5.344h-36.627v72.637h6.191V92.627h30.436c2.961,0,5.539,1.146,7.88,3.502Z" style="fill:#fe0101;"/><path d="M251.464,101.137c.766,.754,1.139,1.687,1.139,2.852,0,1.942-.352,3.321-1.018,3.987-.685,.685-1.654,1.018-2.961,1.018h-22.682v6.191h22.682c4.64,0,10.17-1.942,10.17-11.196,0-2.722-1.01-5.122-3.002-7.135-1.996-2.015-4.408-3.036-7.168-3.036h-29.244v65.254h6.191v-59.062h23.053c1.138,0,2.067,.369,2.84,1.128Z" style="fill:#fe0101;"/><path d="M261.709,90.925c3.808,3.826,5.66,8.099,5.66,13.063,0,3.828-.884,7.31-2.628,10.35-1.743,3.037-4.053,5.391-6.867,6.996-2.82,1.609-5.932,2.425-9.25,2.425h-22.682v6.191h22.682c4.409,0,8.562-1.118,12.344-3.323,3.78-2.204,6.856-5.341,9.145-9.327,2.287-3.985,3.447-8.463,3.447-13.312,0-4.31-1.154-8.439-3.43-12.276-2.269-3.82-5.355-6.916-9.175-9.202-3.839-2.295-7.987-3.458-12.331-3.458h-44.01v80.02h6.191V85.244h37.818c4.997,0,9.277,1.858,13.085,5.682Z" style="fill:#fe0101;"/><path d="M264.645,76.127c-4.961-2.958-10.352-4.458-16.021-4.458h-51.393v87.402h6.191V77.861h45.201c4.568,0,8.916,1.209,12.921,3.593,4.019,2.392,7.262,5.643,9.638,9.661,2.368,4.008,3.568,8.34,3.568,12.874,0,3.814-.709,7.456-2.108,10.825-1.399,3.369-3.301,6.269-5.651,8.619-2.355,2.355-5.167,4.25-8.355,5.633-3.175,1.377-6.544,2.076-10.012,2.076h-22.682v6.191h22.682c4.308,0,8.465-.78,12.354-2.318,3.892-1.539,7.356-3.738,10.297-6.538,2.952-2.809,5.328-6.378,7.062-10.608,1.729-4.218,2.605-8.888,2.605-13.881,0-5.637-1.49-11.009-4.43-15.967-2.933-4.944-6.926-8.946-11.868-11.895Z" style="fill:#fe0101;"/><polygon points="308.442 159.322 354.407 159.322 354.407 152.631 315.134 152.631 315.134 151.939 354.407 151.939 354.407 145.248 315.134 145.248 315.134 144.556 354.407 144.556 354.407 137.865 315.134 137.865 315.134 126.099 335.283 126.099 335.283 119.408 315.134 119.408 315.134 118.717 335.283 118.717 335.283 112.025 315.134 112.025 315.134 111.334 335.283 111.334 335.283 104.642 315.134 104.642 315.134 92.877 354.407 92.877 354.407 86.185 315.134 86.185 315.134 85.494 354.407 85.494 354.407 78.802 315.134 78.802 315.134 78.111 354.407 78.111 354.407 71.42 308.442 71.42 308.442 159.322" style="fill:#fe0101;"/><rect x="301.059" y="71.42" width="6.691" height="87.902" style="fill:#fe0101;"/><rect x="293.676" y="71.42" width="6.691" height="87.902" style="fill:#fe0101;"/><rect x="286.294" y="71.42" width="6.691" height="87.902" style="fill:#fe0101;"/><rect x="375.246" y="71.42" width="6.691" height="87.902" style="fill:#fe0101;"/><polygon points="389.32 71.42 382.629 71.42 382.629 159.322 418.851 159.322 418.851 152.631 389.32 152.631 389.32 151.939 418.851 151.939 418.851 145.248 389.32 145.248 389.32 144.556 418.851 144.556 418.851 137.865 389.32 137.865 389.32 71.42" style="fill:#fe0101;"/><rect x="367.863" y="71.42" width="6.691" height="87.902" style="fill:#fe0101;"/><rect x="360.48" y="71.42" width="6.691" height="87.902" style="fill:#fe0101;"/><polygon points="482.375 144.556 482.375 137.865 452.843 137.865 452.843 71.42 446.152 71.42 446.152 159.322 482.375 159.322 482.375 152.631 452.843 152.631 452.843 151.939 482.375 151.939 482.375 145.248 452.843 145.248 452.843 144.556 482.375 144.556" style="fill:#fe0101;"/><rect x="438.769" y="71.42" width="6.691" height="87.902" style="fill:#fe0101;"/><rect x="431.386" y="71.42" width="6.691" height="87.902" style="fill:#fe0101;"/><rect x="424.004" y="71.42" width="6.691" height="87.902" style="fill:#fe0101;"/></g></g><g id="c"><g><path d="M322.212,60.665c3.716,0,7.354-.665,10.814-1.976l.325-.123v-24.2h-2.949v10.01c-2.416,1.114-5.052,1.679-7.839,1.679-1.396,0-2.718-.205-3.93-.608-1.206-.402-2.316-1.009-3.298-1.804-.966-.782-1.738-1.843-2.296-3.154-.564-1.324-.851-2.879-.851-4.622,0-2.8,1.004-5.223,2.984-7.203,1.981-1.98,4.405-2.984,7.203-2.984,1.726,0,3.348,.402,4.824,1.196,1.476,.793,2.693,1.888,3.614,3.253l.278,.413,2.431-1.607-.283-.421c-1.192-1.769-2.758-3.19-4.657-4.224-1.902-1.034-3.99-1.559-6.207-1.559-1.77,0-3.485,.349-5.097,1.04-1.611,.689-3.021,1.633-4.194,2.806-1.174,1.173-2.118,2.584-2.807,4.194-.69,1.611-1.04,3.326-1.04,5.097,0,2.129,.372,4.071,1.107,5.774,.739,1.712,1.759,3.115,3.029,4.169,1.255,1.042,2.684,1.844,4.247,2.383,1.557,.537,3.237,.81,4.997,.81,2.755,0,5.37-.486,7.784-1.447v.78c-2.486,1.083-5.185,1.632-8.028,1.632-1.475,0-2.918-.198-4.29-.588-1.367-.39-2.661-.982-3.843-1.759-1.184-.778-2.23-1.732-3.109-2.836-.877-1.098-1.575-2.426-2.075-3.947-.503-1.525-.758-3.198-.758-4.971,0-2.544,.635-4.919,1.889-7.062,1.255-2.146,2.979-3.87,5.125-5.124,2.142-1.253,4.518-1.889,7.061-1.889,2.369,0,4.6,.556,6.632,1.654,2.033,1.099,3.713,2.604,4.994,4.472l.277,.404,2.461-1.599-.288-.424c-1.551-2.289-3.586-4.123-6.049-5.452-2.466-1.33-5.166-2.004-8.027-2.004-3.064,0-5.937,.768-8.539,2.282-2.603,1.513-4.689,3.6-6.203,6.202-1.514,2.604-2.281,5.478-2.281,8.54,0,2.611,.477,5.04,1.417,7.219,.945,2.184,2.237,4.006,3.842,5.415,1.594,1.402,3.441,2.5,5.487,3.265,2.045,.765,4.22,1.152,6.465,1.152,2.701,0,5.333-.444,7.839-1.321v.872c-2.536,.903-5.234,1.361-8.028,1.361-1.868,0-3.715-.266-5.486-.789-1.768-.523-3.424-1.304-4.921-2.323-1.497-1.018-2.826-2.254-3.951-3.675-1.119-1.415-2.008-3.098-2.644-5.003-.637-1.909-.96-3.985-.96-6.172,0-2.422,.477-4.772,1.417-6.984,.942-2.215,2.227-4.146,3.821-5.74,1.594-1.593,3.525-2.879,5.74-3.821,2.213-.94,4.562-1.417,6.984-1.417,3.015,0,5.863,.711,8.468,2.113,2.607,1.404,4.759,3.334,6.396,5.738l.277,.407,2.462-1.601-.289-.425c-1.908-2.807-4.41-5.063-7.437-6.706-3.031-1.643-6.354-2.477-9.877-2.477-3.762,0-7.289,.945-10.484,2.808-3.193,1.863-5.756,4.426-7.619,7.618-1.864,3.194-2.808,6.722-2.808,10.484,0,2.491,.377,4.875,1.12,7.084,.743,2.213,1.788,4.18,3.105,5.847,1.312,1.661,2.864,3.112,4.618,4.314,1.754,1.203,3.69,2.125,5.756,2.74,2.062,.614,4.213,.925,6.392,.925,2.752,0,5.422-.391,7.947-1.163v.811c-5.25,1.704-11.206,1.825-16.449-.306-2.611-1.06-4.935-2.539-6.905-4.394-1.964-1.851-3.559-4.183-4.742-6.932-1.182-2.75-1.781-5.753-1.781-8.926,0-2.942,.581-5.796,1.728-8.481,1.148-2.69,2.715-5.04,4.658-6.982,1.944-1.943,4.293-3.51,6.982-4.658,2.687-1.147,5.54-1.728,8.481-1.728,3.66,0,7.117,.861,10.277,2.559,3.162,1.699,5.777,4.043,7.773,6.967l.277,.406,2.463-1.601-.29-.425c-2.266-3.326-5.232-5.995-8.814-7.934-3.586-1.939-7.517-2.922-11.685-2.922-3.346,0-6.588,.663-9.633,1.971-3.042,1.306-5.701,3.086-7.905,5.29-2.204,2.204-3.983,4.864-5.289,7.905-1.309,3.044-1.971,6.285-1.971,9.633,0,3.615,.681,7.029,2.025,10.147,1.345,3.117,3.169,5.771,5.423,7.888,2.25,2.112,4.891,3.785,7.849,4.972,2.963,1.188,6.105,1.791,9.339,1.791Z" style="fill:#ffed2d;"/><path d="M15.782,38.444c1.331,1.472,3.055,2.641,5.124,3.477,2.057,.83,4.387,1.251,6.924,1.251h2.915c.625,0,1.057,.12,1.249,.349,.22,.26,.327,.617,.327,1.093,0,.439-.18,.76-.566,1.008-.306,.197-1.049,.433-2.846,.433-3.099,0-5.272-.275-6.459-.818l-.273-.125-2.403,1.823,.646,.38c1.905,1.121,4.761,1.689,8.488,1.689,5.213,0,6.307-2.387,6.307-4.39,0-1.268-.349-2.323-1.038-3.133-.709-.834-1.846-1.257-3.379-1.257h-2.969c-2.776,0-5.206-.599-7.224-1.781-2.011-1.177-3.526-2.755-4.502-4.692-.985-1.953-1.485-4.184-1.485-6.63,0-1.813,.336-3.527,.999-5.095,.664-1.567,1.624-2.965,2.856-4.153,1.229-1.186,2.821-2.134,4.733-2.818,1.925-.688,4.116-1.037,6.512-1.037,3.081,0,6.007,.45,8.697,1.338,2.674,.883,4.929,2.141,6.705,3.742l.306,.276,2.38-1.765-.439-.412c-2.059-1.93-4.662-3.451-7.737-4.521-3.062-1.067-6.396-1.607-9.911-1.607-2.248,0-4.369,.274-6.304,.815-1.943,.543-3.646,1.311-5.062,2.283-1.415,.971-2.644,2.139-3.654,3.472-1.011,1.336-1.777,2.822-2.278,4.418-.499,1.59-.752,3.293-.752,5.064,0,2.21,.355,4.302,1.056,6.219,.703,1.924,1.731,3.642,3.056,5.105Z" style="fill:#ffed2d;"/><rect x="49.382" y="16.899" width="30.16" height="2.949" style="fill:#ffed2d;"/><rect x="49.382" y="13.012" width="30.16" height="2.949" style="fill:#ffed2d;"/><path d="M107.933,53.404c2.204,2.204,4.864,3.983,7.905,5.29,3.046,1.308,6.286,1.971,9.634,1.971,4.149,0,8.071-.978,11.657-2.908,3.581-1.927,6.546-4.573,8.814-7.865l.272-.395-2.368-1.798-.298,.437c-1.995,2.923-4.616,5.277-7.789,6.995-3.167,1.715-6.628,2.585-10.288,2.585-2.941,0-5.795-.581-8.482-1.728-2.689-1.148-5.038-2.715-6.982-4.658-1.943-1.943-3.51-4.292-4.658-6.982-1.147-2.687-1.728-5.54-1.728-8.481s.581-5.794,1.728-8.481c1.148-2.69,2.715-5.04,4.658-6.982,1.944-1.943,4.293-3.51,6.982-4.658,2.687-1.147,5.541-1.728,8.482-1.728,3.66,0,7.117,.861,10.275,2.559,3.162,1.699,5.778,4.043,7.774,6.967l.277,.406,2.462-1.601-.29-.425c-2.267-3.326-5.233-5.995-8.815-7.934-3.586-1.939-7.518-2.922-11.685-2.922-3.347,0-6.588,.663-9.634,1.971-3.041,1.307-5.701,3.086-7.905,5.29s-3.984,4.864-5.29,7.905c-1.307,3.046-1.971,6.286-1.971,9.633s.663,6.587,1.971,9.633c1.306,3.041,3.085,5.701,5.29,7.905Z" style="fill:#ffed2d;"/><rect x="197.748" y="16.899" width="30.16" height="2.949" style="fill:#ffed2d;"/><rect x="197.748" y="13.012" width="30.16" height="2.949" style="fill:#ffed2d;"/><path d="M42.486,21.855l2.298-1.846-.454-.395c-1.7-1.478-3.854-2.638-6.4-3.447-2.531-.804-5.293-1.211-8.21-1.211-4.43,0-7.932,1.157-10.41,3.44-2.49,2.293-3.752,5.228-3.752,8.724s1.095,6.41,3.255,8.699c2.167,2.299,5.201,3.465,9.017,3.465h2.942c1.944,0,3.352,.482,4.184,1.434,.849,.972,1.28,2.282,1.28,3.894s-.556,2.863-1.701,3.843c-1.151,.986-3.044,1.485-5.625,1.485-4.106,0-7.28-.751-9.433-2.233l-.302-.208-2.343,1.809,.514,.398c1.324,1.026,3.023,1.823,5.05,2.37,2.004,.539,4.196,.813,6.515,.813,3.369,0,5.947-.769,7.662-2.286,1.734-1.532,2.613-3.548,2.613-5.991,0-2.385-.706-4.378-2.1-5.925-1.407-1.561-3.522-2.352-6.285-2.352h-2.969c-3.007,0-5.335-.868-6.92-2.579-1.595-1.722-2.404-3.955-2.404-6.637,0-2.72,.931-4.885,2.845-6.619,1.902-1.723,4.718-2.596,8.368-2.596,2.512,0,4.888,.329,7.064,.978,2.157,.644,3.969,1.557,5.387,2.715l.316,.258Z" style="fill:#ffed2d;"/><path d="M28.909,60.665c2.248,0,4.369-.274,6.304-.815,1.943-.543,3.646-1.311,5.062-2.283,1.415-.971,2.644-2.139,3.654-3.472,1.011-1.336,1.778-2.823,2.278-4.418,.499-1.589,.752-3.293,.752-5.064,0-2.171-.346-4.24-1.028-6.148-.684-1.913-1.688-3.63-2.985-5.104-1.304-1.481-2.986-2.665-4.999-3.518-2.007-.85-4.285-1.281-6.77-1.281h-3.347c-.607,0-1.024-.115-1.208-.334-.208-.247-.314-.619-.314-1.107,0-.439,.18-.759,.565-1.008,.307-.197,1.05-.433,2.846-.433,3.079,0,5.243,.275,6.432,.818l.273,.125,2.403-1.823-.646-.38c-1.905-1.121-4.752-1.689-8.461-1.689-5.213,0-6.307,2.387-6.307,4.39,0,1.288,.35,2.348,1.04,3.149,.708,.823,1.844,1.241,3.377,1.241h3.266c2.7,0,5.069,.611,7.04,1.816,1.969,1.204,3.454,2.792,4.414,4.722,.968,1.945,1.459,4.154,1.459,6.565,0,1.813-.336,3.528-.999,5.095-.663,1.567-1.624,2.965-2.856,4.153-1.229,1.186-2.821,2.134-4.734,2.818-1.925,.688-4.116,1.037-6.512,1.037-3.081,0-6.012-.45-8.711-1.339-2.683-.882-4.943-2.141-6.718-3.742l-.305-.276-2.38,1.764,.439,.412c2.058,1.93,4.666,3.451,7.751,4.521,3.071,1.067,6.41,1.607,9.924,1.607Z" style="fill:#ffed2d;"/><path d="M29.719,18.843c-3.368,0-5.946,.769-7.662,2.286-1.734,1.533-2.613,3.549-2.613,5.991,0,2.423,.707,4.426,2.102,5.954,1.406,1.542,3.52,2.324,6.284,2.324h3.05c2.97,0,5.275,.872,6.85,2.591,1.587,1.731,2.392,3.96,2.392,6.625,0,2.721-.931,4.886-2.845,6.619-1.901,1.723-4.717,2.596-8.368,2.596-2.513,0-4.894-.329-7.078-.978-2.166-.643-3.983-1.557-5.399-2.715l-.316-.258-2.298,1.846,.454,.395c1.7,1.478,3.858,2.638,6.414,3.447,2.538,.804,5.304,1.211,8.223,1.211,4.429,0,7.931-1.157,10.41-3.44,2.49-2.293,3.752-5.229,3.752-8.724,0-3.426-1.085-6.338-3.224-8.656-2.151-2.328-5.159-3.509-8.94-3.509h-3.077c-1.945,0-3.347-.478-4.17-1.421-.84-.962-1.266-2.277-1.266-3.907,0-1.606,.556-2.863,1.701-3.843,1.151-.986,3.044-1.485,5.625-1.485,4.088,0,7.252,.751,9.407,2.233l.302,.208,2.343-1.809-.514-.398c-1.326-1.026-3.02-1.823-5.036-2.369-1.996-.54-4.183-.814-6.502-.814Z" style="fill:#ffed2d;"/><polygon points="57.157 58.721 60.106 58.721 60.106 23.735 61.044 23.735 61.044 58.721 63.993 58.721 63.993 23.735 64.931 23.735 64.931 58.721 67.88 58.721 67.88 23.735 68.819 23.735 68.819 58.721 71.767 58.721 71.767 23.735 79.542 23.735 79.542 20.786 49.382 20.786 49.382 23.735 57.157 23.735 57.157 58.721" style="fill:#ffed2d;"/><rect x="82.937" y="13.012" width="2.949" height="45.709" style="fill:#ffed2d;"/><rect x="90.712" y="13.012" width="2.949" height="45.709" style="fill:#ffed2d;"/><rect x="94.599" y="13.012" width="2.949" height="45.709" style="fill:#ffed2d;"/><rect x="86.824" y="13.012" width="2.949" height="45.709" style="fill:#ffed2d;"/><path d="M125.472,25.679c1.725,0,3.348,.402,4.823,1.196,1.477,.793,2.693,1.888,3.614,3.253l.279,.413,2.431-1.607-.284-.42c-1.193-1.77-2.76-3.191-4.657-4.224-1.902-1.034-3.99-1.559-6.206-1.559-1.769,0-3.485,.349-5.098,1.04-1.609,.688-3.02,1.633-4.192,2.806-1.174,1.173-2.118,2.584-2.806,4.193-.69,1.609-1.04,3.324-1.04,5.098s.35,3.488,1.04,5.097c.689,1.61,1.632,3.021,2.807,4.194,1.174,1.175,2.584,2.119,4.192,2.806,1.612,.69,3.327,1.04,5.098,1.04,2.198,0,4.277-.52,6.177-1.545,1.899-1.024,3.467-2.431,4.657-4.182l.274-.403-2.381-1.725-.291,.43c-.921,1.365-2.138,2.465-3.616,3.268-1.474,.802-3.097,1.208-4.821,1.208-2.801,0-5.224-1.004-7.203-2.984-1.98-1.979-2.984-4.402-2.984-7.203s1.004-5.224,2.984-7.203c1.98-1.98,4.403-2.984,7.203-2.984Z" style="fill:#ffed2d;"/><path d="M137.373,28.322l2.461-1.599-.287-.424c-1.551-2.289-3.585-4.123-6.048-5.452-2.466-1.33-5.166-2.004-8.027-2.004-3.064,0-5.936,.768-8.54,2.282-2.602,1.513-4.689,3.599-6.203,6.202-1.514,2.603-2.281,5.477-2.281,8.54s.768,5.937,2.281,8.54c1.515,2.603,3.602,4.69,6.203,6.201,2.602,1.514,5.476,2.282,8.54,2.282,2.861,0,5.561-.674,8.027-2.004,2.463-1.329,4.498-3.163,6.048-5.452l.278-.411-2.417-1.681-.285,.421c-1.28,1.886-2.964,3.403-5.007,4.511-2.04,1.106-4.275,1.667-6.644,1.667-2.544,0-4.92-.636-7.061-1.889-2.147-1.255-3.872-2.979-5.125-5.124-1.254-2.142-1.889-4.518-1.889-7.062s.636-4.919,1.889-7.062c1.254-2.145,2.977-3.869,5.125-5.124,2.141-1.253,4.518-1.889,7.061-1.889,2.369,0,4.6,.556,6.631,1.654,2.035,1.1,3.715,2.604,4.994,4.472l.277,.404Z" style="fill:#ffed2d;"/><path d="M140.611,26.163l2.462-1.601-.288-.425c-1.907-2.807-4.41-5.063-7.436-6.706-3.031-1.643-6.355-2.477-9.877-2.477-3.762,0-7.289,.945-10.484,2.808-3.194,1.863-5.757,4.426-7.62,7.618-1.863,3.195-2.808,6.722-2.808,10.484s.945,7.289,2.808,10.484c1.862,3.192,4.425,5.755,7.619,7.619,3.195,1.863,6.722,2.808,10.484,2.808,3.505,0,6.815-.824,9.835-2.449,3.016-1.622,5.514-3.86,7.425-6.651l.273-.4-2.376-1.76-.294,.432c-1.636,2.405-3.784,4.34-6.384,5.753-2.595,1.411-5.448,2.126-8.479,2.126-2.423,0-4.773-.477-6.985-1.417-2.214-.941-4.144-2.227-5.739-3.821-1.594-1.594-2.879-3.526-3.821-5.74-.94-2.212-1.417-4.562-1.417-6.984s.477-4.772,1.417-6.984c.942-2.215,2.227-4.146,3.821-5.74,1.595-1.594,3.526-2.879,5.739-3.821,2.212-.94,4.562-1.417,6.985-1.417,3.015,0,5.864,.711,8.467,2.113,2.609,1.404,4.76,3.335,6.396,5.738l.277,.407Z" style="fill:#ffed2d;"/><rect x="152.666" y="13.012" width="2.949" height="45.709" style="fill:#ffed2d;"/><rect x="156.553" y="13.012" width="2.949" height="45.709" style="fill:#ffed2d;"/><rect x="148.779" y="13.012" width="2.949" height="45.709" style="fill:#ffed2d;"/><rect x="191.539" y="13.012" width="2.949" height="45.709" style="fill:#ffed2d;"/><rect x="183.764" y="13.012" width="2.949" height="45.709" style="fill:#ffed2d;"/><path d="M163.389,41.201h16.488v17.52h2.949V13.012h-2.949V30.478h-16.488V13.012h-2.949V58.721h2.949v-17.52Zm16.488-3.887v.938h-16.488v-.938h16.488Zm-16.488-2.949v-.938h16.488v.938h-16.488Z" style="fill:#ffed2d;"/><rect x="187.652" y="13.012" width="2.949" height="45.709" style="fill:#ffed2d;"/><polygon points="205.522 58.721 208.471 58.721 208.471 23.735 209.41 23.735 209.41 58.721 212.359 58.721 212.359 23.735 213.297 23.735 213.297 58.721 216.246 58.721 216.246 23.735 217.184 23.735 217.184 58.721 220.133 58.721 220.133 23.735 227.908 23.735 227.908 20.786 197.748 20.786 197.748 23.735 205.522 23.735 205.522 58.721" style="fill:#ffed2d;"/><rect x="242.964" y="13.012" width="2.949" height="45.709" style="fill:#ffed2d;"/><rect x="235.19" y="13.012" width="2.949" height="45.709" style="fill:#ffed2d;"/><rect x="231.302" y="13.012" width="2.949" height="45.709" style="fill:#ffed2d;"/><rect x="239.077" y="13.012" width="2.949" height="45.709" style="fill:#ffed2d;"/><polygon points="290.563 13.012 287.615 13.012 287.615 46.37 290.563 51.367 290.563 13.012" style="fill:#ffed2d;"/><polygon points="282.789 13.012 279.84 13.012 279.84 33.631 282.789 38.505 282.789 13.012" style="fill:#ffed2d;"/><polygon points="286.676 13.012 283.727 13.012 283.727 39.946 286.676 44.901 286.676 13.012" style="fill:#ffed2d;"/><polygon points="252.986 18.45 277.739 58.721 281.158 58.721 253.141 13.012 250.037 13.012 250.037 58.721 252.986 58.721 252.986 18.45" style="fill:#ffed2d;"/><polygon points="256.873 58.721 256.873 25.363 253.924 20.366 253.924 58.721 256.873 58.721" style="fill:#ffed2d;"/><polygon points="257.65 13.012 254.202 13.012 282.302 58.721 285.75 58.721 257.797 13.251 257.65 13.012" style="fill:#ffed2d;"/><polygon points="258.792 13.012 286.69 58.481 286.836 58.721 290.338 58.721 262.267 13.012 258.792 13.012" style="fill:#ffed2d;"/><polygon points="294.451 58.721 294.451 13.012 291.502 13.012 291.502 53.279 266.802 13.012 263.355 13.012 291.371 58.721 294.451 58.721" style="fill:#ffed2d;"/><polygon points="264.648 58.721 264.648 38.102 261.699 33.228 261.699 58.721 264.648 58.721" style="fill:#ffed2d;"/><polygon points="260.76 58.721 260.76 31.787 257.812 26.831 257.812 58.721 260.76 58.721" style="fill:#ffed2d;"/><rect x="342.063" y="34.365" width="2.949" height="24.356" style="fill:#ffed2d;"/><rect x="338.176" y="34.365" width="2.949" height="24.356" style="fill:#ffed2d;"/><rect x="334.289" y="34.365" width="2.949" height="24.356" style="fill:#ffed2d;"/></g><g><path d="M81.586,80.065c-5-2.981-10.433-4.493-16.149-4.493H13.795v87.902h6.691V82.264h44.95c4.523,0,8.827,1.197,12.794,3.558,3.982,2.37,7.195,5.591,9.55,9.574,2.345,3.969,3.534,8.257,3.534,12.747,0,3.781-.703,7.391-2.09,10.729-1.388,3.34-3.271,6.212-5.597,8.539-2.332,2.333-5.117,4.21-8.277,5.581-3.144,1.363-6.479,2.055-9.914,2.055h-22.802v-.691h22.802c4.453,0,8.649-1.129,12.471-3.357,3.818-2.226,6.926-5.395,9.235-9.418,2.31-4.024,3.48-8.545,3.48-13.436,0-4.354-1.166-8.527-3.466-12.404-2.29-3.857-5.406-6.982-9.262-9.289-3.877-2.318-8.069-3.494-12.459-3.494H21.178v80.52h6.691V89.646h37.567c4.927,0,9.149,1.834,12.908,5.608,3.759,3.776,5.587,7.992,5.587,12.887,0,3.783-.873,7.224-2.596,10.225-1.72,2.998-3.999,5.321-6.773,6.904-2.782,1.587-5.853,2.392-9.126,2.392h-22.802v-.691h22.802c4.901,0,9.139-1.742,12.593-5.179,3.458-3.438,5.21-8.031,5.21-13.65,0-4.627-1.802-8.794-5.356-12.386-3.559-3.595-7.747-5.418-12.448-5.418H28.561v73.137h6.691V97.029h30.185c2.892,0,5.411,1.122,7.703,3.428,2.294,2.31,3.41,4.823,3.41,7.684,0,3.955-1.05,6.898-3.211,8.999-2.173,2.112-4.757,3.139-7.901,3.139h-22.802v-.691h22.802c4.754,0,10.421-1.986,10.421-11.446,0-2.79-1.034-5.25-3.075-7.311-2.045-2.063-4.517-3.11-7.346-3.11h-29.493v65.754h6.691v-21.738h22.802c4.34,0,8.528-.786,12.446-2.335,3.922-1.551,7.414-3.768,10.377-6.589,2.977-2.833,5.373-6.431,7.121-10.694,1.742-4.248,2.625-8.95,2.625-13.976,0-5.681-1.502-11.096-4.465-16.095-2.953-4.98-6.976-9.012-11.955-11.982Zm-38.951,24.347h22.802c1.07,0,1.942,.346,2.665,1.056,.716,.705,1.064,1.58,1.064,2.674,0,2.368-.514,3.379-.945,3.81-.636,.636-1.547,.945-2.785,.945h-22.802v-8.484Z" style="fill:#fff;"/><path d="M189.113,119.523c0-7.241-1.82-14.033-5.409-20.187-3.585-6.146-8.518-11.08-14.663-14.665-6.153-3.588-12.945-5.408-20.188-5.408s-14.034,1.82-20.188,5.408c-6.147,3.586-11.081,8.52-14.665,14.665-3.588,6.152-5.408,12.944-5.408,20.187s1.819,14.034,5.408,20.188c3.584,6.145,8.519,11.079,14.665,14.664,6.151,3.589,12.943,5.409,20.188,5.409s14.036-1.82,20.188-5.408c6.145-3.584,11.078-8.518,14.663-14.664,3.589-6.155,5.409-12.947,5.409-20.188Zm-40.26,33.568c-4.527,0-8.919-.891-13.052-2.649-4.144-1.762-7.752-4.165-10.728-7.141-2.977-2.975-5.379-6.584-7.141-10.728-1.757-4.132-2.648-8.523-2.648-13.051s.891-8.918,2.648-13.051c1.763-4.145,4.165-7.754,7.142-10.729,2.975-2.976,6.583-5.378,10.727-7.14,4.133-1.758,8.524-2.649,13.052-2.649s8.917,.891,13.05,2.649c4.146,1.763,7.755,4.166,10.729,7.14,2.975,2.975,5.377,6.585,7.139,10.729,1.758,4.136,2.65,8.527,2.65,13.051s-.892,8.916-2.65,13.051c-1.761,4.143-4.164,7.752-7.14,10.729-2.974,2.975-6.583,5.377-10.729,7.14-4.133,1.758-8.523,2.649-13.05,2.649Z" style="fill:#fff;"/><path d="M181.73,119.523c0-5.915-1.483-11.464-4.408-16.494-2.922-5.024-6.95-9.053-11.975-11.976-5.031-2.924-10.58-4.407-16.494-4.407s-11.463,1.483-16.495,4.408c-5.026,2.924-9.055,6.953-11.976,11.976-2.924,5.027-4.406,10.577-4.406,16.494s1.482,11.466,4.406,16.494h0c2.922,5.025,6.952,9.055,11.976,11.976,5.03,2.924,10.579,4.407,16.494,4.407s11.464-1.483,16.494-4.407c5.022-2.92,9.051-6.95,11.975-11.976,2.925-5.03,4.408-10.579,4.408-16.494Zm-32.877,26.186c-4.733,0-9.153-1.182-13.138-3.512-3.995-2.335-7.203-5.544-9.536-9.537-2.33-3.984-3.512-8.404-3.512-13.137s1.182-9.152,3.512-13.137h0c2.333-3.992,5.541-7.2,9.536-9.537,3.986-2.33,8.407-3.512,13.138-3.512s9.149,1.182,13.137,3.511c3.994,2.337,7.203,5.546,9.537,9.537,2.33,3.988,3.512,8.408,3.512,13.137s-1.182,9.15-3.512,13.137c-2.335,3.993-5.543,7.202-9.536,9.537-3.987,2.33-8.407,3.512-13.138,3.512Z" style="fill:#fff;"/><path d="M174.347,119.523c0-3.434-.679-6.763-2.018-9.896-1.336-3.12-3.168-5.856-5.445-8.135-2.28-2.278-5.017-4.11-8.137-5.445-3.132-1.339-6.461-2.018-9.895-2.018s-6.765,.679-9.896,2.018c-3.117,1.333-5.854,3.166-8.135,5.445-2.281,2.282-4.113,5.019-5.445,8.135-1.339,3.128-2.018,6.458-2.018,9.896s.679,6.769,2.017,9.895c1.332,3.116,3.164,5.853,5.446,8.136,2.283,2.281,5.02,4.113,8.134,5.446,3.13,1.338,6.459,2.017,9.896,2.017s6.765-.679,9.895-2.017c3.117-1.333,5.854-3.166,8.137-5.446,2.278-2.279,4.11-5.016,5.445-8.135,1.338-3.131,2.017-6.46,2.017-9.896Zm-6.691,0c0,5.24-1.802,9.589-5.508,13.294-3.708,3.707-8.057,5.508-13.295,5.508s-9.589-1.802-13.295-5.508c-3.706-3.704-5.508-8.052-5.508-13.294s1.802-9.59,5.508-13.294h0c3.707-3.707,8.056-5.508,13.295-5.508s9.586,1.802,13.295,5.508c3.706,3.707,5.508,8.056,5.508,13.295Z" style="fill:#fff;"/><path d="M182.546,85.83c-4.236-4.235-9.344-7.654-15.184-10.162-5.854-2.513-12.082-3.788-18.51-3.788s-12.657,1.274-18.512,3.788c-5.842,2.51-10.95,5.928-15.182,10.162-4.237,4.237-7.656,9.345-10.162,15.183-2.513,5.852-3.788,12.08-3.788,18.511s1.274,12.659,3.788,18.511c2.507,5.839,5.926,10.948,10.162,15.183,4.232,4.234,9.34,7.652,15.182,10.162,5.854,2.513,12.083,3.788,18.512,3.788s12.655-1.274,18.51-3.788c5.839-2.507,10.948-5.926,15.184-10.162,4.232-4.233,7.651-9.342,10.161-15.183,2.513-5.854,3.788-12.083,3.788-18.511s-1.274-12.656-3.788-18.511c-2.509-5.839-5.928-10.947-10.161-15.182Zm-33.693,74.645c-5.514,0-10.862-1.089-15.896-3.238-5.043-2.151-9.447-5.088-13.088-8.729-3.643-3.643-6.58-8.047-8.73-13.089-2.148-5.034-3.238-10.382-3.238-15.895s1.089-10.859,3.238-15.895h0c2.151-5.043,5.088-9.446,8.729-13.088,3.641-3.641,8.045-6.578,13.089-8.73,5.036-2.149,10.384-3.238,15.896-3.238s10.858,1.089,15.894,3.238c5.047,2.154,9.451,5.091,13.089,8.73,3.64,3.639,6.577,8.042,8.729,13.088,2.149,5.039,3.239,10.387,3.239,15.895s-1.09,10.857-3.239,15.895c-2.152,5.045-5.089,9.449-8.73,13.088-3.639,3.64-8.042,6.577-13.088,8.73-5.034,2.148-10.381,3.238-15.894,3.238Z" style="fill:#fff;"/><path d="M260.657,100.281c2.343,2.359,3.481,4.93,3.481,7.86,0,4.026-1.075,7.028-3.287,9.178-2.221,2.16-4.863,3.209-8.075,3.209h-22.682v6.191h22.682c4.833,0,9.01-1.718,12.417-5.106,3.408-3.389,5.136-7.922,5.136-13.473,0-4.559-1.777-8.667-5.284-12.21-3.51-3.546-7.638-5.344-12.269-5.344h-36.627v72.637h6.191V96.779h30.436c2.961,0,5.539,1.146,7.88,3.502Z" style="fill:#fff;"/><path d="M255.617,105.29c.766,.754,1.139,1.687,1.139,2.852,0,1.942-.352,3.321-1.018,3.987-.685,.685-1.654,1.018-2.961,1.018h-22.682v6.191h22.682c4.64,0,10.17-1.942,10.17-11.196,0-2.722-1.01-5.122-3.002-7.135-1.996-2.015-4.408-3.036-7.168-3.036h-29.244v65.254h6.191v-59.062h23.053c1.138,0,2.067,.369,2.84,1.128Z" style="fill:#fff;"/><path d="M265.862,95.078c3.808,3.826,5.66,8.099,5.66,13.063,0,3.828-.884,7.31-2.628,10.35-1.743,3.037-4.053,5.391-6.867,6.996-2.82,1.609-5.932,2.425-9.25,2.425h-22.682v6.191h22.682c4.409,0,8.562-1.118,12.344-3.323,3.78-2.204,6.856-5.341,9.145-9.327,2.287-3.985,3.447-8.463,3.447-13.312,0-4.31-1.154-8.439-3.43-12.276-2.269-3.82-5.355-6.916-9.175-9.202-3.839-2.295-7.987-3.458-12.331-3.458h-44.01v80.02h6.191V89.396h37.818c4.997,0,9.277,1.858,13.085,5.682Z" style="fill:#fff;"/><path d="M268.798,80.28c-4.961-2.958-10.352-4.458-16.021-4.458h-51.393v87.402h6.191V82.014h45.201c4.568,0,8.916,1.209,12.921,3.593,4.019,2.392,7.262,5.643,9.638,9.661,2.368,4.008,3.568,8.34,3.568,12.874,0,3.814-.709,7.456-2.108,10.825-1.399,3.369-3.301,6.269-5.651,8.619-2.355,2.355-5.167,4.25-8.355,5.633-3.175,1.377-6.544,2.076-10.012,2.076h-22.682v6.191h22.682c4.308,0,8.465-.78,12.354-2.318,3.892-1.539,7.356-3.738,10.297-6.538,2.952-2.809,5.328-6.378,7.062-10.608,1.729-4.218,2.605-8.888,2.605-13.881,0-5.637-1.49-11.009-4.43-15.967-2.933-4.944-6.926-8.946-11.868-11.895Z" style="fill:#fff;"/><polygon points="312.595 163.474 358.559 163.474 358.559 156.783 319.286 156.783 319.286 156.092 358.559 156.092 358.559 149.4 319.286 149.4 319.286 148.709 358.559 148.709 358.559 142.017 319.286 142.017 319.286 130.252 339.435 130.252 339.435 123.56 319.286 123.56 319.286 122.869 339.435 122.869 339.435 116.178 319.286 116.178 319.286 115.486 339.435 115.486 339.435 108.795 319.286 108.795 319.286 97.029 358.559 97.029 358.559 90.338 319.286 90.338 319.286 89.646 358.559 89.646 358.559 82.955 319.286 82.955 319.286 82.264 358.559 82.264 358.559 75.572 312.595 75.572 312.595 163.474" style="fill:#fff;"/><rect x="305.212" y="75.572" width="6.691" height="87.902" style="fill:#fff;"/><rect x="297.829" y="75.572" width="6.691" height="87.902" style="fill:#fff;"/><rect x="290.446" y="75.572" width="6.691" height="87.902" style="fill:#fff;"/><rect x="379.398" y="75.572" width="6.691" height="87.902" style="fill:#fff;"/><polygon points="393.473 75.572 386.781 75.572 386.781 163.474 423.004 163.474 423.004 156.783 393.473 156.783 393.473 156.092 423.004 156.092 423.004 149.4 393.473 149.4 393.473 148.709 423.004 148.709 423.004 142.017 393.473 142.017 393.473 75.572" style="fill:#fff;"/><rect x="372.015" y="75.572" width="6.691" height="87.902" style="fill:#fff;"/><rect x="364.633" y="75.572" width="6.691" height="87.902" style="fill:#fff;"/><polygon points="486.527 148.709 486.527 142.017 456.996 142.017 456.996 75.572 450.305 75.572 450.305 163.474 486.527 163.474 486.527 156.783 456.996 156.783 456.996 156.092 486.527 156.092 486.527 149.4 456.996 149.4 456.996 148.709 486.527 148.709" style="fill:#fff;"/><rect x="442.922" y="75.572" width="6.691" height="87.902" style="fill:#fff;"/><rect x="435.539" y="75.572" width="6.691" height="87.902" style="fill:#fff;"/><rect x="428.156" y="75.572" width="6.691" height="87.902" style="fill:#fff;"/></g></g></svg>